<?xml version="1.0" standalone="no"?>
<!DOCTYPE svg PUBLIC "-//W3C//DTD SVG 1.1//EN" "http://www.w3.org/Graphics/SVG/1.1/DTD/svg11.dtd" >
<svg xmlns="http://www.w3.org/2000/svg" xmlns:xlink="http://www.w3.org/1999/xlink" version="1.1">
<metadata>
Created by FontForge 20150824 at Fri Oct 28 06:39:25 2016
 By Everything Fonts
Part of the digitally encoded machine readable outline data for producing the Typefaces provided is copyrighted (c) 2006 Linotype GmbH, www.linotype.com. All rights reserved. This software is the property of Linotype GmbH, and may not be reproduced, modified, disclosed or transferred without the express written approval of Linotype GmbH.  Copyright (c) 1988, 1990, 1993 Adobe Systems Incorporated. All Rights Reserved. Helvetica is a trademark of Heidelberger Druckmaschinen AG, exclusively licensed through Linotype GmbH, and may be registered in certain jurisdictions. This typeface is original artwork of Linotype Design Studio. The design may be protected in certain jurisdictions.
</metadata>
<defs>
<font id="HelveticaNeueLTComXBlkCn" horiz-adv-x="500" >
  <font-face 
    font-family="HelveticaNeueLTComXBlkCn"
    font-weight="900"
    font-stretch="condensed"
    units-per-em="1000"
    panose-1="2 11 8 6 4 5 2 5 2 4"
    ascent="714"
    descent="-286"
    x-height="541"
    cap-height="714"
    bbox="-167 -240 1117 989"
    underline-thickness="50"
    underline-position="-150"
    unicode-range="U+0020-FB02"
  />
<missing-glyph horiz-adv-x="512" 
d="M222 117v67h56v-67h-56zM225 234l-2 17q0 55 13 81t46 59q32 31 41 47.5t9 35.5q0 36 -22.5 60.5t-53.5 24.5t-53.5 -22t-28.5 -73l-50 8q7 71 44 104t91 33q53 0 88.5 -36t35.5 -95q0 -32 -12.5 -58.5t-50.5 -61.5q-37 -33 -43 -52t-6 -72h-46zM462 50v617h-412v-617
h412zM512 718v-718h-512v718h512z" />
    <glyph glyph-name="IJ" unicode="IJ" horiz-adv-x="775" 
d="M29 714h200v-714h-200v714zM539 714h200v-514q0 -59 -17 -99.5t-48 -66t-75.5 -37t-99.5 -11.5q-56 0 -94 11.5t-62.5 29.5t-38 40.5t-19.5 44t-7 40.5t-1 31v49h182v-53q0 -28 8.5 -44.5t31.5 -16.5q26 0 33 21.5t7 69.5v505z" />
    <glyph glyph-name="ij" unicode="ij" horiz-adv-x="514" 
d="M32 722h194v-138h-194v138zM32 541h194v-541h-194v541zM288 722h194v-138h-194v138zM482 -4q0 -52 -7 -85t-25.5 -52.5t-51 -27t-84.5 -7.5q-12 0 -37.5 1t-54.5 3v131q6 -1 14 -2t16 -1q13 0 24.5 6t11.5 34v545h194v-545z" />
    <glyph glyph-name="napostrophe" unicode="&#x22;n" horiz-adv-x="563" 
d="M342 358q0 31 -9.5 42t-28.5 11q-20 0 -29.5 -15t-9.5 -38v-358h-194v541h188v-62h2q22 40 58 58t85 18q26 0 50 -7.5t42 -24t29 -42.5t11 -63v-418h-194v358zM11 827h154v-93q-2 -25 -10 -43t-23.5 -29.5t-40 -17.5t-60.5 -7v46q27 3 37 9.5t15 21.5h-72v113z" />
    <glyph glyph-name="fi" unicode="fi" horiz-adv-x="574" 
d="M348 722h194v-138h-194v138zM348 541h194v-541h-194v541zM56 605q0 72 41 97.5t122 25.5q9 0 23.5 -0.5l29 -1t27.5 -1t19 -0.5v-123h-26q-16 0 -24.5 -3t-12.5 -8.5t-4.5 -12.5t-0.5 -15v-22h68v-126h-68v-415h-194v415h-59v126h59v64z" />
    <glyph glyph-name="fl" unicode="fl" horiz-adv-x="574" 
d="M348 714h194v-714h-194v714zM56 605q0 72 41 97.5t122 25.5q9 0 23.5 -0.5l29 -1t27.5 -1t19 -0.5v-123h-26q-16 0 -24.5 -3t-12.5 -8.5t-4.5 -12.5t-0.5 -15v-22h68v-126h-68v-415h-194v415h-59v126h59v64z" />
    <glyph glyph-name=".notdef" horiz-adv-x="512" 
d="M222 117v67h56v-67h-56zM225 234l-2 17q0 55 13 81t46 59q32 31 41 47.5t9 35.5q0 36 -22.5 60.5t-53.5 24.5t-53.5 -22t-28.5 -73l-50 8q7 71 44 104t91 33q53 0 88.5 -36t35.5 -95q0 -32 -12.5 -58.5t-50.5 -61.5q-37 -33 -43 -52t-6 -72h-46zM462 50v617h-412v-617
h412zM512 718v-718h-512v718h512z" />
    <glyph glyph-name=".null" 
 />
    <glyph glyph-name="nonmarkingreturn" horiz-adv-x="0" 
 />
    <glyph glyph-name="space" unicode=" " horiz-adv-x="260" 
 />
    <glyph glyph-name="exclam" unicode="!" horiz-adv-x="334" 
d="M76 168h182v-168h-182v168zM73 714h188v-240l-19 -260h-150l-19 260v240z" />
    <glyph glyph-name="quotedbl" unicode="&#x22;" 
d="M45 714h170v-386h-170v386zM285 714h170v-386h-170v386z" />
    <glyph glyph-name="numbersign" unicode="#" horiz-adv-x="520" 
d="M336 694h120l-22 -178h71v-120h-87l-12 -98h72v-120h-88l-22 -178h-120l22 178h-64l-22 -178h-120l22 178h-71v120h87l12 98h-72v120h88l22 178h120l-22 -178h64zM298 396h-64l-12 -98h64z" />
    <glyph glyph-name="dollar" unicode="$" horiz-adv-x="520" 
d="M208 -14q-47 3 -84 15t-62 36t-38 60.5t-13 89.5v21h194v-36q0 -26 11.5 -43t37.5 -17q28 0 38.5 19t10.5 45q0 17 -3 27.5t-8.5 18t-13.5 12.5t-18 11q-20 11 -46 22t-53 23q-22 11 -47 24t-46.5 34.5t-36 54.5t-14.5 83q0 109 48.5 163t142.5 59v77h78v-77
q66 -3 106 -21t62.5 -46.5t30 -66t7.5 -79.5h-188v29q0 23 -10.5 40.5t-36.5 17.5q-23 0 -34.5 -16t-11.5 -39q0 -35 22 -54.5t55 -33.5t72 -28.5t72 -38t55 -62t22 -100.5q0 -64 -14 -106t-41.5 -67.5t-69.5 -37t-98 -13.5v-89h-78v89z" />
    <glyph glyph-name="percent" unicode="%" horiz-adv-x="778" 
d="M493 725h114l-322 -756h-114zM174 324q-50 0 -81 12.5t-49 37t-24.5 60t-6.5 82.5q0 46 6.5 82t24.5 60.5t49 37t81 12.5q49 0 80.5 -12.5t49.5 -37t24.5 -60.5t6.5 -82q0 -47 -6.5 -82.5t-24.5 -60t-49.5 -37t-80.5 -12.5zM174 408q22 0 25.5 25.5t3.5 82.5t-3.5 82.5
t-25.5 25.5t-25.5 -25.5t-3.5 -82.5t3.5 -82.5t25.5 -25.5zM604 -14q-50 0 -81 12.5t-49 37t-24.5 60t-6.5 82.5q0 46 6.5 82t24.5 60.5t49 37t81 12.5q49 0 80.5 -12.5t49.5 -37t24.5 -60.5t6.5 -82q0 -47 -6.5 -82.5t-24.5 -60t-49.5 -37t-80.5 -12.5zM604 70
q22 0 25.5 25.5t3.5 82.5t-3.5 82.5t-25.5 25.5t-25.5 -25.5t-3.5 -82.5t3.5 -82.5t25.5 -25.5z" />
    <glyph glyph-name="ampersand" unicode="&#x26;" horiz-adv-x="630" 
d="M330 567q0 24 -14.5 35.5t-35.5 11.5q-24 0 -36.5 -12.5t-12.5 -30.5q0 -23 17 -49l28 -40q5 3 14 11.5t18 20t15.5 25.5t6.5 28zM400 40q-38 -27 -87.5 -40.5t-92.5 -13.5q-66 0 -107.5 20.5t-65.5 50.5t-33 65t-9 64q0 72 38 123t98 84q-29 34 -50.5 73.5t-21.5 84.5
q0 40 15 72t42 54t63.5 33.5t79.5 11.5q47 0 88 -8.5t71 -28t47 -51t17 -76.5q0 -34 -10 -60.5t-27 -48.5t-39.5 -41.5t-46.5 -38.5l70 -97q9 19 16.5 38t7.5 40h170q-4 -62 -29 -120.5t-65 -93.5l100 -136h-210zM236 272q-6 -3 -13 -9t-14 -16t-11.5 -22.5t-4.5 -27.5
q0 -26 20.5 -43.5t46.5 -17.5q23 0 36.5 6t24.5 14z" />
    <glyph glyph-name="quotesingle" unicode="'" horiz-adv-x="260" 
d="M45 714h170v-386h-170v386z" />
    <glyph glyph-name="parenleft" unicode="(" horiz-adv-x="333" 
d="M344 714q-32 -44 -54.5 -101t-36 -117.5t-19.5 -121.5t-6 -114q0 -52 7 -111.5t21.5 -119t36.5 -115t51 -98.5h-163q-34 50 -61 107.5t-45.5 118.5t-27.5 123.5t-7 122.5q2 55 12 111.5t28 111t43.5 106.5t57.5 97h163z" />
    <glyph glyph-name="parenright" unicode=")" horiz-adv-x="333" 
d="M-11 -184q32 44 54.5 101t36 117.5t19.5 121.5t6 114q0 52 -7 111.5t-21.5 118.5t-36.5 114.5t-51 99.5h163q34 -50 61 -107.5t45.5 -118.5t27.5 -123.5t7 -122.5q-2 -55 -12 -111.5t-28 -111t-43.5 -106.5t-57.5 -97h-163z" />
    <glyph glyph-name="asterisk" unicode="*" horiz-adv-x="407" 
d="M28 622l123 -46v138h102v-138l126 46l32 -100l-126 -43l80 -113l-84 -61l-79 115l-76 -115l-84 61l84 113l-130 43z" />
    <glyph glyph-name="plus" unicode="+" horiz-adv-x="600" 
d="M228 506h144v-181h181v-144h-181v-181h-144v181h-181v144h181v181z" />
    <glyph glyph-name="comma" unicode="," horiz-adv-x="260" 
d="M42 210h176v-154q0 -52 -5.5 -94t-24 -72t-53.5 -47t-93 -19v90q18 1 30 5.5t19.5 14.5t11 27.5t4.5 44.5h-65v204z" />
    <glyph glyph-name="hyphen" unicode="-" horiz-adv-x="370" 
d="M23 371h324v-162h-324v162z" />
    <glyph glyph-name="period" unicode="." horiz-adv-x="260" 
d="M42 212h176v-212h-176v212z" />
    <glyph glyph-name="slash" unicode="/" horiz-adv-x="352" 
d="M206 728h162l-222 -742h-162z" />
    <glyph glyph-name="zero" unicode="0" horiz-adv-x="520" 
d="M13 347q0 61 2.5 107t8.5 80t16 59t26 45q31 38 78 54t116 16t116 -16t78 -54q16 -20 26 -45t16 -59t8.5 -80t2.5 -107q0 -62 -2.5 -107.5t-8.5 -79.5t-16 -59t-26 -45q-31 -38 -78 -54t-116 -16t-116 16t-78 54q-16 20 -26 45t-16 59t-8.5 79.5t-2.5 107.5zM307 347
q0 34 -0.5 67t-1.5 60t-2.5 46.5t-2.5 27.5q-3 15 -12 24.5t-28 9.5t-28 -9.5t-12 -24.5q-2 -8 -3.5 -27.5t-2 -46.5t-1 -60t-0.5 -67q0 -35 0.5 -67.5t1 -59.5t2 -46.5t3.5 -27.5q3 -15 12 -24.5t28 -9.5t28 9.5t12 24.5q1 8 2.5 27.5t2.5 46.5t1.5 59.5t0.5 67.5z" />
    <glyph glyph-name="one" unicode="1" horiz-adv-x="520" 
d="M381 0h-200v473h-135v126h26q28 0 55.5 6t50 19t38.5 34t21 50h144v-708z" />
    <glyph glyph-name="two" unicode="2" horiz-adv-x="520" 
d="M500 0h-480q4 72 24 137t74 122l120 125q4 4 12 13t16.5 19.5t15.5 22t10 22.5q5 13 5.5 27t0.5 32q0 29 -8 45.5t-34 16.5q-14 0 -22.5 -7t-12.5 -17.5t-5 -23t-1 -22.5v-44h-188q0 64 12 109.5t40 74.5t72 42.5t110 13.5q79 0 126 -17.5t72 -45.5t32 -63t7 -69
q0 -75 -22 -122.5t-60 -83.5t-76.5 -71.5t-76.5 -85.5h237v-150z" />
    <glyph glyph-name="three" unicode="3" horiz-adv-x="520" 
d="M213 191q0 -12 0.5 -26t5 -26t13 -19.5t25.5 -7.5q16 0 25 7.5t13.5 20t5 29.5t0.5 35q0 26 -1.5 44t-9 29.5t-23.5 16.5t-45 5h-28v120h28q20 0 34 3t23 13.5t13 30t4 52.5q0 10 -1 21.5t-5 21t-12 15.5t-23 6q-30 0 -36.5 -22.5t-6.5 -65.5h-182q3 61 19 102.5t46 66
t74 35t103 10.5q61 0 103 -13t67.5 -37.5t36.5 -60t11 -81.5q0 -24 -5.5 -48t-17.5 -44t-31 -34.5t-45 -19.5v-2q58 -12 84 -56.5t26 -102.5q0 -61 -16.5 -103.5t-48 -69t-77 -38.5t-103.5 -12q-49 0 -93 9.5t-76.5 35t-51 70.5t-16.5 117h194v-27z" />
    <glyph glyph-name="four" unicode="4" horiz-adv-x="520" 
d="M161 272h108v218h-2zM227 694h224v-422h63v-150h-63v-122h-182v122h-263v150z" />
    <glyph glyph-name="five" unicode="5" horiz-adv-x="520" 
d="M40 694h426v-150h-273l-6 -113h2q14 27 48.5 44.5t73.5 17.5q58 0 95 -17t57 -49.5t27.5 -78.5t7.5 -104q0 -65 -11.5 -113t-39 -80.5t-73 -48.5t-112.5 -16q-35 0 -76.5 5.5t-78 25.5t-61 60.5t-24.5 111.5v28h188v-28q0 -11 1.5 -24t6 -25t13 -20t22.5 -8q17 0 26 7
t13.5 22t5 38t0.5 55q0 63 -7 92t-38 29q-24 0 -33.5 -18t-9.5 -38h-182z" />
    <glyph glyph-name="six" unicode="6" horiz-adv-x="520" 
d="M260 327q-18 0 -27.5 -7t-14 -21t-5 -34t-0.5 -46t0.5 -45.5t5 -33.5t14 -21t27.5 -7t27.5 7t14 21t5 33.5t0.5 45.5t-0.5 46t-5 34t-14 21t-27.5 7zM305 522v21q0 39 -43 39q-29 0 -36 -22t-7 -73v-66h2q20 26 51 38t65 12q58 0 92 -21t51 -53.5t22 -70t5 -70.5
q0 -68 -12 -118.5t-40.5 -84.5t-76 -50.5t-118.5 -16.5q-60 0 -102 13t-69.5 35.5t-42.5 54t-22.5 68.5t-9 78t-1.5 84q0 78 4 148.5t27 124t73 85t143 31.5q58 0 101 -9t71.5 -30t43.5 -57t17 -90h-188z" />
    <glyph glyph-name="seven" unicode="7" horiz-adv-x="520" 
d="M25 694h470v-148q-38 -53 -67.5 -122.5t-51.5 -143.5t-36.5 -147t-22.5 -133h-206q9 67 23.5 136.5t37 136.5t54.5 130.5t76 120.5v2h-277v168z" />
    <glyph glyph-name="eight" unicode="8" horiz-adv-x="520" 
d="M31 519q0 57 19 93.5t50.5 58t73 29.5t86.5 8t86.5 -8t73 -29.5t50.5 -58t19 -93.5q0 -24 -6.5 -47t-18.5 -42t-29.5 -33.5t-39.5 -21.5v-2q12 -4 31 -10.5t37 -23.5t31 -49.5t13 -87.5q0 -57 -13.5 -98t-43.5 -67t-77 -38.5t-113 -12.5t-113 12.5t-77 38.5t-43.5 67
t-13.5 98q0 55 13 87.5t31 49.5t37 23.5t31 10.5v2q-46 14 -70 55t-24 89zM307 210q0 23 -0.5 41.5t-5 31.5t-14 20t-27.5 7t-27.5 -7t-14 -20t-5 -31.5t-0.5 -41.5q0 -22 0.5 -40t5 -31t14 -20t27.5 -7t27.5 7t14 20t5 31t0.5 40zM301 503q0 15 -0.5 29t-4.5 25.5t-12.5 18
t-23.5 6.5t-23.5 -6.5t-12.5 -18t-4.5 -25.5t-0.5 -29t0.5 -29.5t4.5 -25.5t12.5 -18t23.5 -7t23.5 7t12.5 18t4.5 25.5t0.5 29.5z" />
    <glyph glyph-name="nine" unicode="9" horiz-adv-x="520" 
d="M260 582q-18 0 -27.5 -7t-14 -21t-5 -34t-0.5 -45q0 -26 0.5 -46t5 -34t14 -21t27.5 -7t27.5 7t14 21t5 34t0.5 46q0 25 -0.5 45t-5 34t-14 21t-27.5 7zM215 174v-23q0 -39 43 -39q29 0 36 22t7 73v66h-2q-20 -26 -51 -38t-65 -12q-58 0 -92 21t-51 53.5t-22 70t-5 70.5
q0 68 12 118.5t40.5 84.5t76 50.5t118.5 16.5q60 0 102 -13t69.5 -35.5t42.5 -54t22.5 -68.5t9 -78.5t1.5 -83.5q0 -78 -4 -149t-27 -124t-73 -84.5t-143 -31.5q-58 0 -101 9t-71.5 30.5t-43.5 57.5t-17 91h188z" />
    <glyph glyph-name="colon" unicode=":" horiz-adv-x="260" 
d="M42 541h176v-212h-176v212zM42 212h176v-212h-176v212z" />
    <glyph glyph-name="semicolon" unicode=";" horiz-adv-x="260" 
d="M42 541h176v-212h-176v212zM42 210h176v-154q0 -52 -5.5 -94t-24 -72t-53.5 -47t-93 -19v90q18 1 30 5.5t19.5 14.5t11 27.5t4.5 44.5h-65v204z" />
    <glyph glyph-name="less" unicode="&#x3c;" horiz-adv-x="600" 
d="M47 328l506 192v-138l-345 -129l345 -129v-138l-506 192v150z" />
    <glyph glyph-name="equal" unicode="=" horiz-adv-x="600" 
d="M47 213h506v-144h-506v144zM47 437h506v-144h-506v144z" />
    <glyph glyph-name="greater" unicode="&#x3e;" horiz-adv-x="600" 
d="M47 124l345 129l-345 129v138l506 -192v-150l-506 -192v138z" />
    <glyph glyph-name="question" unicode="?" 
d="M151 168h182v-168h-182v168zM28 488q1 42 6 83.5t29 76.5q31 45 83 62.5t107 17.5q12 0 32.5 -1.5t44 -7.5t48 -18.5t44.5 -35t32.5 -55.5t12.5 -81q0 -42 -13.5 -79.5t-40.5 -68.5l-65 -75q-14 -16 -16 -41.5t-3 -50.5h-176q0 54 6.5 101.5t33.5 78.5l66 75q14 17 20 37
t6 42q0 23 -9.5 41.5t-29.5 18.5q-21 0 -31.5 -20t-10.5 -45v-55h-176z" />
    <glyph glyph-name="at" unicode="@" horiz-adv-x="800" 
d="M529 534h92l-40 -211q-2 -11 -4.5 -25t-2.5 -21q0 -22 17 -22q13 0 26.5 9t25 27.5t19 48.5t7.5 72q0 52 -18 92t-51.5 67t-80.5 41t-104 14q-62 0 -111 -19.5t-83.5 -55.5t-53 -85.5t-18.5 -109.5q0 -65 20.5 -115t58 -84t89.5 -51.5t115 -17.5q57 0 105.5 12t86.5 40
h110q-54 -76 -133.5 -115t-200.5 -39q-77 0 -144.5 29t-118 79.5t-79.5 118t-29 144.5t29 144.5t79.5 118t118 79.5t144.5 29q73 0 140.5 -21t118.5 -60t81.5 -95t30.5 -125q0 -63 -25 -113.5t-62.5 -85t-82.5 -53t-85 -18.5q-23 0 -39 11.5t-19 32.5h-4q-17 -20 -44.5 -32
t-61.5 -12q-31 0 -58.5 12.5t-47.5 35.5t-32 54.5t-12 70.5q0 44 13.5 85t39 73t62 51t82.5 19q38 0 69.5 -14.5t56.5 -46.5zM484 369q0 36 -20 58.5t-55 22.5q-21 0 -38 -9t-29 -24t-18 -33.5t-6 -37.5q0 -34 18 -57.5t50 -23.5q22 0 40 8.5t31 22.5t20 33t7 40z" />
    <glyph glyph-name="A" unicode="A" horiz-adv-x="574" 
d="M288 558h-2l-46 -293h91zM353 109h-134l-20 -109h-206l169 714h251l168 -714h-206z" />
    <glyph glyph-name="B" unicode="B" horiz-adv-x="574" 
d="M239 433h30q10 0 20 3.5t18.5 11t14 20.5t5.5 33q0 69 -61 69h-27v-137zM39 714h288q94 0 147 -43.5t53 -133.5q0 -42 -11.5 -71t-28.5 -47.5t-37 -28.5t-37 -14v-2q15 -2 37.5 -8t43 -23.5t35.5 -50t15 -86.5t-15 -92.5t-42 -64t-65 -37.5t-84 -12h-299v714zM239 144h35
q33 0 48.5 21t15.5 56q0 36 -14 61t-49 25h-36v-163z" />
    <glyph glyph-name="C" unicode="C" horiz-adv-x="537" 
d="M322 508q0 12 -0.5 27t-4.5 28.5t-12.5 23t-23.5 9.5q-20 0 -30.5 -9t-16 -34.5t-6.5 -72.5t-1 -123q0 -78 1.5 -125.5t7 -72.5t16.5 -33t29 -8q24 0 34.5 27t10.5 94v55h194v-45q0 -63 -13 -111.5t-42 -82.5t-75 -51.5t-112 -17.5q-96 0 -148.5 26t-76.5 74t-28 116.5
t-4 154.5q0 83 4 151.5t28 117t76.5 75.5t148.5 27q80 0 127 -19.5t72 -51.5t32 -72.5t7 -82.5v-52h-194v58z" />
    <glyph glyph-name="D" unicode="D" horiz-adv-x="574" 
d="M39 714h288q67 0 111 -24t68 -69q12 -21 19.5 -41t11.5 -48.5t5.5 -70t1.5 -104.5q0 -39 -1.5 -80.5t-8 -81.5t-19.5 -75t-37 -62t-60 -42.5t-88 -15.5h-291v714zM239 144h41q19 0 30.5 9.5t17.5 25t8 35t2 39.5v208q0 27 -2 47.5t-9.5 34t-21.5 20.5t-37 7h-29v-426z
" />
    <glyph glyph-name="E" unicode="E" 
d="M39 714h430v-162h-230v-110h215v-156h-215v-124h239v-162h-439v714z" />
    <glyph glyph-name="F" unicode="F" horiz-adv-x="481" 
d="M39 714h430v-162h-230v-110h215v-156h-215v-286h-200v714z" />
    <glyph glyph-name="G" unicode="G" horiz-adv-x="556" 
d="M284 389h245v-389h-139l-5 58h-2q-13 -24 -29.5 -38t-35 -21.5t-39.5 -10t-43 -2.5q-51 0 -86 14t-58.5 39t-36.5 60t-19 76t-7.5 87t-1.5 94q0 76 5.5 144t30.5 118.5t76 80t143 29.5q74 0 121 -17.5t73.5 -49.5t36.5 -76.5t10 -98.5h-188v29q0 40 -11 60.5t-40 20.5
q-18 0 -28 -7.5t-15.5 -20t-6.5 -28.5t-1 -32v-294q0 -17 1.5 -34t6.5 -30.5t15.5 -22.5t28.5 -9q36 0 46 25t10 65v49h-57v132z" />
    <glyph glyph-name="H" unicode="H" horiz-adv-x="574" 
d="M335 714h200v-714h-200v288h-96v-288h-200v714h200v-258h96v258z" />
    <glyph glyph-name="I" unicode="I" horiz-adv-x="258" 
d="M29 714h200v-714h-200v714z" />
    <glyph glyph-name="J" unicode="J" 
d="M264 714h200v-514q0 -59 -17 -99.5t-48 -66t-75.5 -37t-99.5 -11.5q-56 0 -94 11.5t-62.5 29.5t-38 40.5t-19.5 44t-7 40.5t-1 31v49h182v-53q0 -28 8.5 -44.5t31.5 -16.5q26 0 33 21.5t7 69.5v505z" />
    <glyph glyph-name="K" unicode="K" horiz-adv-x="574" 
d="M356 714h217l-176 -314l198 -400h-225l-102 237l-29 -55v-182h-200v714h200v-272h2z" />
    <glyph glyph-name="L" unicode="L" horiz-adv-x="463" 
d="M39 714h200v-552h218v-162h-418v714z" />
    <glyph glyph-name="M" unicode="M" horiz-adv-x="778" 
d="M39 714h290l59 -437h2l65 437h284v-714h-188v520h-2l-88 -520h-144l-88 520h-2v-520h-188v714z" />
    <glyph glyph-name="N" unicode="N" horiz-adv-x="593" 
d="M363 714h188v-714h-214l-111 440h-2v-440h-182v714h217l102 -436h2v436z" />
    <glyph glyph-name="O" unicode="O" horiz-adv-x="556" 
d="M21 357q0 83 4 151.5t28 117t76.5 75.5t148.5 27t148.5 -27t76.5 -75.5t28 -117t4 -151.5q0 -86 -4 -154.5t-28 -116.5t-76.5 -74t-148.5 -26t-148.5 26t-76.5 74t-28 116.5t-4 154.5zM329 357q0 78 -2 125.5t-7.5 72.5t-15.5 33t-26 8t-26 -8t-15.5 -33t-7.5 -72.5
t-2 -125.5t2 -125.5t7.5 -72.5t15.5 -33t26 -8t26 8t15.5 33t7.5 72.5t2 125.5z" />
    <glyph glyph-name="P" unicode="P" horiz-adv-x="556" 
d="M39 714h265q115 0 173 -52t58 -170q0 -60 -17.5 -102t-49 -69t-74.5 -39.5t-94 -12.5h-61v-269h-200v714zM239 413h22q14 0 26.5 2t21.5 10.5t14.5 24t5.5 42.5q0 37 -15 57.5t-53 20.5h-22v-157z" />
    <glyph glyph-name="Q" unicode="Q" horiz-adv-x="556" 
d="M344 -10q-14 -2 -30 -3q-4 -1 -8 -1h-9h-19q-96 0 -148.5 26t-76.5 74t-28 116.5t-4 154.5q0 83 4 151.5t28 117t76.5 75.5t148.5 27t148.5 -27t76.5 -75.5t28 -117t4 -151.5q0 -49 -1 -93t-5.5 -81.5t-14.5 -68.5t-29 -55l84 -86l-120 -103zM329 357q0 78 -2 125.5
t-7.5 72.5t-15.5 33t-26 8t-26 -8t-15.5 -33t-7.5 -72.5t-2 -125.5t2 -125.5t7.5 -72.5t15.5 -33t26 -8t26 8t15.5 33t7.5 72.5t2 125.5z" />
    <glyph glyph-name="R" unicode="R" horiz-adv-x="574" 
d="M39 714h300q104 0 150.5 -48.5t46.5 -138.5q0 -43 -9 -73.5t-24.5 -51t-37.5 -32t-48 -15.5v-2q30 -2 55.5 -16.5t39.5 -40.5q14 -24 16.5 -57t2.5 -65v-59q0 -30 2.5 -53t6.5 -31q7 -15 21 -21v-10h-212q-5 6 -8 18t-4.5 26.5t-2 30t-0.5 28.5q0 26 -1.5 53t-1.5 53
q0 46 -14.5 59t-40.5 13h-37v-281h-200v714zM239 413h29q12 0 24.5 3.5t22 12.5t15.5 25.5t6 42.5q0 44 -20 58.5t-54 14.5h-23v-157z" />
    <glyph glyph-name="S" unicode="S" horiz-adv-x="537" 
d="M313 538q0 23 -10.5 40.5t-36.5 17.5q-23 0 -34.5 -16t-11.5 -38q0 -36 22 -56t55 -34.5t72 -29t72 -38.5t55 -63t22 -103q0 -62 -15 -106t-46.5 -72t-81.5 -41t-119 -13q-57 0 -101.5 10.5t-74.5 35t-45.5 64.5t-15.5 99v19h194v-33q0 -26 12 -44.5t38 -18.5
q28 0 38.5 20t10.5 43q0 17 -3 28t-9 18.5t-14 13t-17 11.5q-20 11 -46 22t-53 25q-41 20 -68.5 38.5t-44.5 41t-24 51t-7 68.5q0 75 20.5 118t55.5 68q26 18 64.5 31t98.5 13q76 0 122 -17.5t71.5 -47.5t34 -69.5t8.5 -84.5h-188v29z" />
    <glyph glyph-name="T" unicode="T" horiz-adv-x="464" 
d="M-4 714h472v-168h-136v-546h-200v546h-136v168z" />
    <glyph glyph-name="U" unicode="U" horiz-adv-x="556" 
d="M324 714h200v-472q0 -128 -56.5 -192t-189.5 -64q-73 0 -120.5 15t-75.5 46.5t-39 80t-11 114.5v472h200v-510q0 -46 8.5 -66t37.5 -20t37.5 20t8.5 66v510z" />
    <glyph glyph-name="V" unicode="V" horiz-adv-x="537" 
d="M337 714h211l-151 -714h-258l-150 714h216l65 -552h2z" />
    <glyph glyph-name="W" unicode="W" horiz-adv-x="778" 
d="M594 714h188l-118 -714h-214l-60 480h-2l-57 -480h-218l-117 714h194l47 -506h2l63 506h176l71 -506h2z" />
    <glyph glyph-name="X" unicode="X" horiz-adv-x="556" 
d="M332 714h221l-156 -352l170 -362h-228l-60 219h-2l-60 -219h-228l170 362l-156 352h221l53 -207h2z" />
    <glyph glyph-name="Y" unicode="Y" horiz-adv-x="538" 
d="M332 714h217l-180 -433v-281h-200v281l-180 433h222l57 -249h2z" />
    <glyph glyph-name="Z" unicode="Z" horiz-adv-x="481" 
d="M230 552h-196v162h428v-139l-217 -413h216v-162h-442v137z" />
    <glyph glyph-name="bracketleft" unicode="[" horiz-adv-x="333" 
d="M64 714h280v-138h-104v-622h104v-138h-280v898z" />
    <glyph glyph-name="backslash" unicode="\" horiz-adv-x="352" 
d="M368 -14h-162l-222 742h162z" />
    <glyph glyph-name="bracketright" unicode="]" horiz-adv-x="333" 
d="M93 576h-104v138h280v-898h-280v138h104v622z" />
    <glyph glyph-name="asciicircum" unicode="^" horiz-adv-x="600" 
d="M300 568l-110 -239h-147l174 365h166l174 -365h-147z" />
    <glyph glyph-name="underscore" unicode="_" 
d="M0 -75h500v-50h-500v50z" />
    <glyph glyph-name="grave" unicode="`" horiz-adv-x="260" 
d="M-6 738h176l36 -144h-119z" />
    <glyph glyph-name="a" unicode="a" 
d="M462 80q0 -43 18 -80h-182q-5 14 -7 28.5t-2 28.5l-2 1q-17 -40 -51 -56t-76 -16q-78 0 -112.5 40.5t-34.5 119.5q0 45 10 75t27 49t41 29.5t51 16.5l90 21q30 7 42 18.5t12 37.5q0 20 -10.5 31t-26.5 11q-15 0 -24.5 -5.5t-14.5 -14t-6.5 -19.5t-1.5 -23h-170
q0 92 51 137t167 45q66 0 107.5 -12.5t65 -34t31.5 -50t8 -59.5v-319zM286 262q-9 -6 -20.5 -10.5t-27.5 -10.5q-24 -9 -30.5 -27t-6.5 -42t9.5 -39t29.5 -15q14 0 23 6t14 15.5t7 21t2 23.5v78z" />
    <glyph glyph-name="b" unicode="b" horiz-adv-x="519" 
d="M306 271q0 76 -7.5 108t-36.5 32t-36.5 -32t-7.5 -108q0 -77 7.5 -109t36.5 -32t36.5 32t7.5 109zM27 714h194v-236h2q14 37 47.5 57t72.5 20q51 0 81.5 -22t47.5 -59.5t22.5 -87.5t5.5 -107q0 -32 -1 -66t-5.5 -66.5t-14.5 -62t-29 -51t-48 -34.5t-71 -13q-32 0 -52 8
t-32 20t-18 25t-9 23h-2v-62h-191v714z" />
    <glyph glyph-name="c" unicode="c" horiz-adv-x="481" 
d="M294 352q0 42 -9 59.5t-34 17.5q-14 0 -22.5 -5.5t-13 -22.5t-6.5 -48t-2 -82q0 -50 1 -81t5.5 -48.5t13 -23.5t23.5 -6q14 0 23 5.5t14.5 19t7.5 37t2 58.5h176q0 -66 -11 -112t-37 -75q-26 -30 -69 -44.5t-106 -14.5q-80 0 -127 23t-71.5 62t-31.5 91t-7 109t7 108.5
t31.5 90.5t71.5 62t127 23q66 0 109.5 -13t68.5 -40.5t35 -70.5t10 -104h-179v25z" />
    <glyph glyph-name="d" unicode="d" horiz-adv-x="519" 
d="M301 271q0 76 -7.5 108t-36.5 32t-36.5 -32t-7.5 -108q0 -77 7.5 -109t36.5 -32t36.5 32t7.5 109zM298 714h194v-714h-191v62h-2q-3 -10 -9 -23t-18 -25t-32.5 -20t-51.5 -8q-42 0 -71 13t-48 34.5t-29 51t-14.5 62t-5.5 66.5t-1 66q0 57 5.5 107t22.5 87.5t47.5 59.5
t81.5 22q39 0 72.5 -20t47.5 -57h2v236z" />
    <glyph glyph-name="e" unicode="e" horiz-adv-x="481" 
d="M291 373q0 40 -10 54t-33 14q-21 0 -31 -14t-10 -54v-32h84v32zM207 168q0 -11 1 -23t5 -22t12.5 -16.5t23.5 -6.5q28 0 35 24t7 66h176q0 -57 -14.5 -95t-43.5 -62q-57 -47 -159 -47q-80 0 -127 23t-71.5 62t-31.5 91t-7 109t7 108.5t31.5 90.5t71.5 62t127 23
q82 0 127.5 -24t66.5 -66t25 -98t4 -119v-9h-266v-71z" />
    <glyph glyph-name="f" unicode="f" horiz-adv-x="315" 
d="M56 605q0 72 41 97.5t122 25.5q9 0 23.5 -0.5l29 -1t27.5 -1t19 -0.5v-123h-26q-16 0 -24.5 -3t-12.5 -8.5t-4.5 -12.5t-0.5 -15v-22h68v-126h-68v-415h-194v415h-59v126h59v64z" />
    <glyph glyph-name="g" unicode="g" horiz-adv-x="519" 
d="M307 541h185v-519q0 -59 -17 -98.5t-48.5 -63.5t-75.5 -34t-97 -10q-77 0 -120 15.5t-64.5 38.5t-27.5 50.5t-8 51.5h176q0 -20 9 -30q10 -12 32 -12q25 0 36 11t11 39v107h-2q-18 -40 -50.5 -54.5t-72.5 -14.5q-48 0 -78 23.5t-47 61t-23 84.5t-6 94q0 46 4 94.5
t21 88.5t50.5 65.5t92.5 25.5q46 0 74 -19.5t44 -61.5h2v67zM301 271q0 76 -7.5 108t-36.5 32t-36.5 -32t-7.5 -108q0 -57 7.5 -86t35.5 -29q29 0 37 29t8 86z" />
    <glyph glyph-name="h" unicode="h" horiz-adv-x="519" 
d="M298 358q0 31 -9.5 42t-28.5 11q-20 0 -29.5 -15t-9.5 -38v-358h-194v714h194v-235h2q22 40 57 58t80 18q26 0 50 -7.5t42 -24t29 -42.5t11 -63v-418h-194v358z" />
    <glyph glyph-name="i" unicode="i" horiz-adv-x="258" 
d="M32 722h194v-138h-194v138zM32 541h194v-541h-194v541z" />
    <glyph glyph-name="j" unicode="j" horiz-adv-x="258" 
d="M32 722h194v-138h-194v138zM226 -4q0 -52 -7 -85t-25.5 -52.5t-51 -27t-84.5 -7.5q-12 0 -37.5 1t-54.5 3v131q6 -1 14 -2t16 -1q13 0 24.5 6t11.5 34v545h194v-545z" />
    <glyph glyph-name="k" unicode="k" horiz-adv-x="519" 
d="M318 541h206l-149 -224l163 -317h-206l-82 177l-29 -44v-133h-194v714h197v-339h2z" />
    <glyph glyph-name="l" unicode="l" horiz-adv-x="258" 
d="M32 714h194v-714h-194v714z" />
    <glyph glyph-name="m" unicode="m" horiz-adv-x="796" 
d="M572 358q0 31 -9.5 42t-28.5 11q-20 0 -29.5 -15t-9.5 -38v-358h-194v358q0 31 -9.5 42t-28.5 11q-20 0 -29.5 -15t-9.5 -38v-358h-194v541h188v-62h2q22 40 58 58t85 18q39 0 73.5 -17t55.5 -59q21 40 57 58t85 18q26 0 50 -7.5t42 -24t29 -42.5t11 -63v-418h-194v358z
" />
    <glyph glyph-name="n" unicode="n" horiz-adv-x="519" 
d="M298 358q0 31 -9.5 42t-28.5 11q-20 0 -29.5 -15t-9.5 -38v-358h-194v541h188v-62h2q22 40 58 58t85 18q26 0 50 -7.5t42 -24t29 -42.5t11 -63v-418h-194v358z" />
    <glyph glyph-name="o" unicode="o" 
d="M207 271q0 -47 2 -78t6.5 -49t13 -25t21.5 -7t21.5 7t13 25t6.5 49t2 78t-2 78t-6.5 49t-13 25t-21.5 7t-21.5 -7t-13 -25t-6.5 -49t-2 -78zM250 555q80 0 127 -23t71.5 -62t31.5 -90.5t7 -108.5t-7 -109t-31.5 -91t-71.5 -62t-127 -23t-127 23t-71.5 62t-31.5 91t-7 109
t7 108.5t31.5 90.5t71.5 62t127 23z" />
    <glyph glyph-name="p" unicode="p" horiz-adv-x="519" 
d="M306 270q0 77 -7.5 109t-36.5 32t-36.5 -32t-7.5 -109q0 -76 7.5 -108t36.5 -32t36.5 32t7.5 108zM27 541h191v-62h2q3 10 9 23t18 25t32 20t52 8q42 0 71 -13t48 -34.5t29 -51t14.5 -62t5.5 -66.5t1 -66q0 -57 -5.5 -107.5t-22.5 -88t-47.5 -59t-81.5 -21.5
q-39 0 -72.5 20t-47.5 57h-2v-239h-194v717z" />
    <glyph glyph-name="q" unicode="q" horiz-adv-x="519" 
d="M301 270q0 77 -7.5 109t-36.5 32t-36.5 -32t-7.5 -109q0 -76 7.5 -108t36.5 -32t36.5 32t7.5 108zM301 541h191v-717h-194v239h-2q-14 -37 -47.5 -57t-72.5 -20q-51 0 -81.5 21.5t-47.5 59t-22.5 88t-5.5 107.5q0 32 1 66t5.5 66.5t14.5 62t29 51t48 34.5t71 13
q31 0 51.5 -8t32.5 -20t18 -25t9 -23h2v62z" />
    <glyph glyph-name="r" unicode="r" horiz-adv-x="370" 
d="M27 541h188v-80h2q14 39 44.5 66.5t70.5 27.5q16 0 22 -1t11 -2v-177q-11 1 -24 3q-5 1 -15 1h-22q-50 0 -66.5 -25.5t-16.5 -73.5v-280h-194v541z" />
    <glyph glyph-name="s" unicode="s" horiz-adv-x="463" 
d="M180 174q2 -17 3.5 -30t6.5 -23t14.5 -15.5t26.5 -5.5q13 0 20.5 5t12 12t6 14t1.5 11q0 10 -2 17t-9.5 13.5t-22.5 13t-42 15.5q-47 16 -81 31t-56.5 34t-33 44.5t-10.5 62.5q0 41 12 74.5t37.5 57.5t66 37t96.5 13q81 0 125 -19t64 -46t23.5 -55.5t3.5 -47.5h-164
q0 11 -1.5 21.5t-6.5 17.5q-10 15 -39 15q-15 0 -28 -7t-13 -30q0 -10 5.5 -17.5t21.5 -16t44 -18.5t72 -25q20 -7 41.5 -17t39 -27t28.5 -45t11 -71q0 -50 -18 -84.5t-48 -56t-70.5 -31t-85.5 -9.5q-53 0 -93.5 8t-68.5 29t-43 57.5t-16 93.5h170z" />
    <glyph glyph-name="t" unicode="t" horiz-adv-x="315" 
d="M56 700h194v-159h68v-126h-68v-241q0 -26 6.5 -38t30.5 -12q20 0 31 3v-129q-6 -1 -17.5 -2t-25.5 -2t-28 -1.5t-25 -0.5q-42 0 -73 2.5t-51.5 14.5t-31 37.5t-10.5 71.5v297h-59v126h59v159z" />
    <glyph glyph-name="u" unicode="u" horiz-adv-x="519" 
d="M304 62h-2q-22 -40 -58 -58t-85 -18q-26 0 -50 7.5t-42 24t-29 42.5t-11 63v418h194v-358q0 -31 9.5 -42t28.5 -11q20 0 29.5 15t9.5 38v358h194v-541h-188v62z" />
    <glyph glyph-name="v" unicode="v" horiz-adv-x="481" 
d="M-4 541h200l45 -373h2l48 373h194l-133 -541h-228z" />
    <glyph glyph-name="w" unicode="w" horiz-adv-x="759" 
d="M-1 541h194l38 -373h2l52 373h200l50 -373h2l41 373h182l-108 -541h-224l-45 349h-2l-48 -349h-223z" />
    <glyph glyph-name="x" unicode="x" 
d="M302 541h200l-140 -261l142 -280h-194l-55 146l-59 -146h-200l148 280l-136 261h194l48 -132z" />
    <glyph glyph-name="y" unicode="y" horiz-adv-x="481" 
d="M-4 541h200l49 -328h2l44 328h194l-139 -536q-13 -48 -26 -82.5t-34 -56.5t-55 -32t-89 -10q-32 0 -53 2.5t-39 6.5v126q25 -3 51 -3q24 0 35 15q10 13 10 29z" />
    <glyph glyph-name="z" unicode="z" horiz-adv-x="463" 
d="M200 391h-173v150h411v-144l-191 -247h198v-150h-427v148z" />
    <glyph glyph-name="braceleft" unicode="{" horiz-adv-x="333" 
d="M0 349q15 0 27 3.5t20 13.5t12.5 28.5t4.5 48.5v134q0 69 39.5 103t103.5 34h126v-138h-35q-32 0 -45 -16.5t-13 -45.5v-127q0 -58 -24 -87t-84 -34v-2q60 -5 84 -34t24 -87v-127q0 -29 13 -45.5t45 -16.5h35v-138h-126q-64 0 -103.5 34t-39.5 103v134q0 30 -4.5 48.5
t-12.5 28.5t-20 13.5t-27 3.5v168z" />
    <glyph glyph-name="bar" unicode="|" horiz-adv-x="278" 
d="M67 728h144v-742h-144v742z" />
    <glyph glyph-name="braceright" unicode="}" horiz-adv-x="333" 
d="M0 -46h35q32 0 45 16.5t13 45.5v127q0 58 24 87t84 34v2q-60 5 -84 34t-24 87v127q0 29 -13 45.5t-45 16.5h-35v138h126q64 0 103.5 -34t39.5 -103v-134q0 -30 4.5 -48.5t12.5 -28.5t20 -13.5t27 -3.5v-168q-15 0 -27 -3.5t-20 -13.5t-12.5 -28.5t-4.5 -48.5v-134
q0 -69 -39.5 -103t-103.5 -34h-126v138z" />
    <glyph glyph-name="asciitilde" unicode="~" horiz-adv-x="600" 
d="M69 271q8 16 19.5 32t26.5 28.5t34.5 20t44.5 7.5q28 0 57 -10.5t56.5 -23.5t52.5 -23.5t46 -10.5q31 0 51.5 22t37.5 48l36 -128q-11 -16 -23 -31.5t-27 -27.5t-33.5 -19.5t-41.5 -7.5q-30 0 -57 10.5t-52.5 23.5t-50.5 23.5t-52 10.5q-18 0 -32 -6.5t-24.5 -16.5
t-18.5 -22.5t-14 -24.5z" />
    <glyph glyph-name="uni00A0" unicode="&#xa0;" horiz-adv-x="260" 
 />
    <glyph glyph-name="exclamdown" unicode="&#xa1;" horiz-adv-x="334" 
d="M258 376h-182v168h182v-168zM261 -170h-188v240l19 260h150l19 -260v-240z" />
    <glyph glyph-name="cent" unicode="&#xa2;" horiz-adv-x="520" 
d="M230 -14q-67 5 -107 30t-60 63q-21 38 -27 86.5t-6 105.5q0 54 6 103t26.5 87.5t60 63t107.5 30.5v84h78v-84q54 -4 89 -19t56 -43t29 -69t8 -97h-179v25q0 42 -9.5 59.5t-34.5 17.5q-14 0 -22 -5.5t-13 -22.5t-6.5 -48t-1.5 -82q0 -50 1 -81t5.5 -48.5t13 -23.5t23.5 -6
q14 0 23 5.5t14.5 19t7.5 37t2 58.5h176q0 -66 -11 -112.5t-37 -75.5q-22 -25 -54 -38.5t-80 -17.5v-92h-78v90z" />
    <glyph glyph-name="sterling" unicode="&#xa3;" horiz-adv-x="520" 
d="M10 393h66q-18 30 -30 63t-12 68q0 48 18 82.5t48.5 57t70.5 33.5t85 11q76 0 124 -15.5t74.5 -43.5t36 -66t9.5 -83h-176v22q0 11 -2 23t-7.5 21.5t-15 15.5t-23.5 6q-18 0 -28 -6.5t-14.5 -16t-5 -20t-0.5 -18.5q0 -30 15.5 -66t32.5 -68h170v-113h-136q0 -18 -4 -37.5
t-14 -37.5q-7 -13 -14 -22t-15 -17t-19 -16t-26 -19l2 -2q8 2 16.5 4t16.5 2q11 0 20 -1t21 -6q17 -6 34 -11t33 -5q28 0 55 13.5t46 24.5l50 -117q-71 -47 -156 -47q-22 0 -49 5t-47 10q-25 7 -53.5 14t-45.5 7q-40 0 -64 -10t-44 -20l-45 107q13 6 32.5 23t37.5 40.5
t31 50t13 51.5q0 11 -3 16h-109v113z" />
    <glyph glyph-name="currency" unicode="&#xa4;" horiz-adv-x="520" 
d="M84 591l52 -51q55 36 124 36q68 0 124 -36l52 51l75 -71l-54 -53q17 -28 27.5 -59t10.5 -61q0 -60 -36 -116l52 -51l-70 -77l-54 54q-56 -39 -127 -39q-72 0 -127 39l-54 -54l-70 77l52 51q-36 56 -36 116q0 30 10.5 61t27.5 59l-54 53zM157 347q0 -21 8 -40t22 -33
t33 -22t40 -8t40 8t33 22t22 33t8 40t-8 40t-22 33t-33 22t-40 8t-40 -8t-33 -22t-22 -33t-8 -40z" />
    <glyph glyph-name="yen" unicode="&#xa5;" horiz-adv-x="520" 
d="M166 113h-123v108h123v72h-123v108h74l-128 293h200l70 -276h2l70 276h200l-128 -293h74v-108h-123v-72h123v-108h-123v-113h-188v113z" />
    <glyph glyph-name="brokenbar" unicode="&#xa6;" horiz-adv-x="278" 
d="M67 728h144v-298h-144v298zM67 284h144v-298h-144v298z" />
    <glyph glyph-name="section" unicode="&#xa7;" horiz-adv-x="520" 
d="M318 220l10 9q21 19 21 55q0 24 -16 35t-37 19l-90 35q-12 -12 -26.5 -28.5t-14.5 -33.5q0 -20 10 -30t28 -16zM311 548v17q0 22 -10.5 32.5t-34.5 10.5q-19 0 -32 -10t-13 -30q0 -25 26 -39q19 -10 44 -19t51 -18t50.5 -18t42.5 -20q37 -23 53.5 -62t16.5 -87
q0 -42 -18.5 -80t-52.5 -63q34 -24 47 -58.5t13 -73.5q0 -54 -20 -89.5t-53 -56.5t-75.5 -29.5t-87.5 -8.5q-58 0 -97.5 10.5t-65 28t-39.5 39t-20.5 43t-7.5 42t-1 34.5v7h182q0 -14 0.5 -29t4 -27t12.5 -20t26 -8q16 0 24.5 6.5t12.5 15.5t4.5 18t0.5 14q0 24 -12.5 37
t-31.5 20l-111 40q-61 22 -92.5 60t-31.5 104q0 21 6 44.5t16.5 45t25.5 38.5t33 25q-26 18 -41.5 47t-15.5 68q0 48 16.5 81.5t46 55.5t70.5 32t91 10q78 0 121 -17t64.5 -43.5t26.5 -58t6 -61.5h-170z" />
    <glyph glyph-name="dieresis" unicode="&#xa8;" horiz-adv-x="260" 
d="M149 738h144v-144h-144v144zM-33 738h144v-144h-144v144z" />
    <glyph glyph-name="copyright" unicode="&#xa9;" horiz-adv-x="800" 
d="M29 357q0 77 29 144.5t79.5 118t118 79.5t144.5 29t144.5 -29t118 -79.5t79.5 -118t29 -144.5t-29 -144.5t-79.5 -118t-118 -79.5t-144.5 -29t-144.5 29t-118 79.5t-79.5 118t-29 144.5zM651 357q0 62 -19.5 111t-53 82.5t-79.5 51.5t-99 18t-99 -18t-80 -51.5t-53 -82.5
t-19 -111t19 -111t53 -83t80 -51.5t99 -17.5t99 17.5t79.5 51.5t53 83t19.5 111zM479 408q-6 29 -27 40.5t-50 11.5q-38 0 -59 -28.5t-21 -77.5q0 -46 22.5 -77t59.5 -31q29 0 50 13.5t25 40.5h108q-10 -78 -57 -114t-116 -36q-47 0 -84 15t-63 42t-39.5 64.5t-13.5 81.5
q0 45 13 82.5t38.5 64t62 41.5t84.5 15q70 0 115.5 -36.5t56.5 -111.5h-105z" />
    <glyph glyph-name="ordfeminine" unicode="&#xaa;" horiz-adv-x="325" 
d="M304 423q0 -25 12 -49h-118q-4 9 -5 18t-1 17h-2q-11 -23 -34 -33q-21 -9 -48 -9q-54 0 -76.5 24t-22.5 72q0 27 6.5 45t18 29t27.5 17.5t35 10.5l59 12q20 5 27.5 11.5t7.5 22.5q0 9 -6.5 17t-17.5 8q-20 0 -24.5 -11.5t-6.5 -24.5h-114q0 54 33.5 81t112.5 27
q43 0 70 -7.5t42 -20.5t20 -30t5 -36v-191zM190 533q-6 -4 -13.5 -6.5t-17.5 -6.5q-16 -6 -20 -16.5t-4 -24.5q0 -15 5.5 -24.5t19.5 -9.5q19 0 24.5 13t5.5 28v47z" />
    <glyph glyph-name="guillemotleft" unicode="&#xab;" horiz-adv-x="444" 
d="M36 407l170 101v-168l-92 -50l92 -50v-168l-170 96v239zM238 407l170 101v-168l-92 -50l92 -50v-168l-170 96v239z" />
    <glyph glyph-name="logicalnot" unicode="&#xac;" horiz-adv-x="600" 
d="M409 293h-362v144h506v-329h-144v185z" />
    <glyph glyph-name="uni00AD" unicode="&#xad;" horiz-adv-x="370" 
d="M23 371h324v-162h-324v162z" />
    <glyph glyph-name="registered" unicode="&#xae;" horiz-adv-x="800" 
d="M29 357q0 77 29 144.5t79.5 118t118 79.5t144.5 29t144.5 -29t118 -79.5t79.5 -118t29 -144.5t-29 -144.5t-79.5 -118t-118 -79.5t-144.5 -29t-144.5 29t-118 79.5t-79.5 118t-29 144.5zM651 357q0 62 -19.5 111t-53 82.5t-79.5 51.5t-99 18t-99 -18t-80 -51.5t-53 -82.5
t-19 -111t19 -111t53 -83t80 -51.5t99 -17.5t99 17.5t79.5 51.5t53 83t19.5 111zM367 314h-13v-148h-96v383h150q36 0 65.5 -5.5t50.5 -19t32 -37t11 -58.5q0 -28 -7.5 -47.5t-20.5 -32.5t-30.5 -20t-38.5 -10l92 -153h-107zM422 392q26 0 37.5 10.5t11.5 27.5
q0 20 -12.5 30.5t-43.5 10.5h-61v-79h68z" />
    <glyph glyph-name="macron" unicode="&#xaf;" horiz-adv-x="260" 
d="M-33 717h326v-102h-326v102z" />
    <glyph glyph-name="degree" unicode="&#xb0;" horiz-adv-x="400" 
d="M41 549q0 33 12.5 62t34 50.5t50.5 34t62 12.5t62 -12.5t50.5 -34t34 -50.5t12.5 -62t-12.5 -62t-34 -50.5t-50.5 -34t-62 -12.5t-62 12.5t-50.5 34t-34 50.5t-12.5 62zM131 549q0 -29 20 -49t49 -20t49 20t20 49t-20 49t-49 20t-49 -20t-20 -49z" />
    <glyph glyph-name="plusminus" unicode="&#xb1;" horiz-adv-x="600" 
d="M47 144h506v-144h-506v144zM228 506h144v-91h181v-144h-181v-91h-144v91h-181v144h181v91z" />
    <glyph glyph-name="twosuperior" unicode="&#xb2;" horiz-adv-x="338" 
d="M15 564q0 81 33 113q17 17 45.5 24t73.5 7q52 0 82.5 -10.5t46.5 -27t20.5 -37t4.5 -39.5q0 -40 -13 -66t-34 -48.5t-46 -46t-49 -57.5h144v-96h-308q4 90 70 159l69 75q18 20 26.5 41t8.5 38t-4.5 27t-20.5 10q-20 0 -24.5 -14.5t-4.5 -27.5v-24h-120z" />
    <glyph glyph-name="threesuperior" unicode="&#xb3;" horiz-adv-x="338" 
d="M119 541h20q26 0 38.5 8.5t12.5 40.5q0 9 -3.5 21.5t-21.5 12.5q-17 0 -20.5 -13t-3.5 -35h-120q1 41 13 67t31.5 40.5t45.5 19.5t55 5q43 0 71.5 -7.5t46 -22.5t25 -36.5t7.5 -49.5q0 -29 -15.5 -55.5t-49.5 -32.5v-2q38 -7 55 -33.5t17 -61.5q0 -74 -41.5 -104
t-112.5 -30q-32 0 -60.5 5.5t-49.5 20.5t-33 42t-11 70h126v-9q0 -16 3 -30.5t21 -14.5q20 0 23 15t3 35q0 13 -1 22.5t-6 15.5t-15.5 9t-29.5 3h-20v84z" />
    <glyph glyph-name="acute" unicode="&#xb4;" horiz-adv-x="260" 
d="M90 738h176l-93 -144h-119z" />
    <glyph glyph-name="mu" unicode="&#xb5;" horiz-adv-x="519" 
d="M492 0h-188v62h-2q-14 -42 -31 -59t-36 -17q-4 0 -14 2v-164h-194v717h194v-358q0 -31 9.5 -42t28.5 -11q20 0 29.5 15t9.5 38v358h194v-541z" />
    <glyph glyph-name="paragraph" unicode="&#xb6;" horiz-adv-x="620" 
d="M436 600h-95v-730h-156v454q-35 0 -68.5 12t-60 36.5t-42.5 61t-16 85.5q0 91 53.5 143t156.5 52h384v-844h-156v730z" />
    <glyph glyph-name="periodcentered" unicode="&#xb7;" horiz-adv-x="260" 
d="M36 278q0 19 7.5 36.5t20 30t29.5 20t37 7.5q19 0 36.5 -7.5t30 -20t20 -30t7.5 -36.5q0 -20 -7.5 -37t-20 -29.5t-30 -20t-36.5 -7.5q-20 0 -37 7.5t-29.5 20t-20 29.5t-7.5 37z" />
    <glyph glyph-name="cedilla" unicode="&#xb8;" horiz-adv-x="260" 
d="M31 -158q18 -10 38 -13t40 -3q19 0 30 8.5t11 22.5t-12.5 22.5t-28.5 8.5q-8 0 -13.5 -1.5t-13.5 -4.5l-29 21l50 97h65l-34 -64q8 3 17.5 4t17.5 1q36 0 59.5 -24t23.5 -58q0 -25 -11.5 -43.5t-30 -31t-42 -18.5t-46.5 -6q-15 0 -31 2t-31.5 5.5t-29 7.5t-22.5 8z" />
    <glyph glyph-name="onesuperior" unicode="&#xb9;" horiz-adv-x="338" 
d="M112 558h-83v84q18 0 37.5 2.5t37 9.5t30.5 20t17 34h93v-428h-132v278z" />
    <glyph glyph-name="ordmasculine" unicode="&#xba;" horiz-adv-x="325" 
d="M163 630q-10 0 -15.5 -3.5t-8.5 -13t-3.5 -27.5t-0.5 -48q0 -29 0.5 -47t3.5 -28.5t8.5 -14t15.5 -3.5t15.5 3.5t8 14t3 28.5t0.5 47q0 30 -0.5 48t-3 27.5t-8 13t-15.5 3.5zM9 538q0 34 4.5 65t20.5 54t46.5 37t82.5 14t82 -14t46 -37t20.5 -54t4.5 -65q0 -35 -4.5 -66
t-20.5 -54t-46 -37t-82 -14t-82.5 14t-46.5 37t-20.5 54t-4.5 66z" />
    <glyph glyph-name="guillemotright" unicode="&#xbb;" horiz-adv-x="444" 
d="M408 168l-170 -96v168l92 50l-92 50v168l170 -101v-239zM206 168l-170 -96v168l92 50l-92 50v168l170 -101v-239z" />
    <glyph glyph-name="onequarter" unicode="&#xbc;" horiz-adv-x="778" 
d="M112 558h-83v84q18 0 37.5 2.5t37 9.5t30.5 20t17 34h93v-428h-132v278zM507 725h114l-387 -756h-114zM590 306h-2l-70 -141h72v141zM555 420h161v-255h33v-96h-33v-69h-132v69h-173v96z" />
    <glyph glyph-name="onehalf" unicode="&#xbd;" horiz-adv-x="778" 
d="M112 558h-83v84q18 0 37.5 2.5t37 9.5t30.5 20t17 34h93v-428h-132v278zM441 0q4 90 70 159l69 75q18 20 26.5 41t8.5 38t-4.5 27t-20.5 10q-20 0 -24.5 -14.5t-4.5 -27.5v-24h-120q0 81 33 113q17 17 45.5 24t73.5 7q52 0 82.5 -10.5t46.5 -27t20.5 -37t4.5 -39.5
q0 -40 -13 -66t-34 -48.5t-46 -46t-49 -57.5h144v-96h-308zM493 725h114l-387 -756h-114z" />
    <glyph glyph-name="threequarters" unicode="&#xbe;" horiz-adv-x="778" 
d="M119 541h20q26 0 38.5 8.5t12.5 40.5q0 9 -3.5 21.5t-21.5 12.5q-17 0 -20.5 -13t-3.5 -35h-120q1 41 13 67t31.5 40.5t45.5 19.5t55 5q43 0 71.5 -7.5t46 -22.5t25 -36.5t7.5 -49.5q0 -29 -15.5 -55.5t-49.5 -32.5v-2q38 -7 55 -33.5t17 -61.5q0 -74 -41.5 -104
t-112.5 -30q-32 0 -60.5 5.5t-49.5 20.5t-33 42t-11 70h126v-9q0 -16 3 -30.5t21 -14.5q20 0 23 15t3 35q0 13 -1 22.5t-6 15.5t-15.5 9t-29.5 3h-20v84zM538 725h114l-387 -756h-114zM604 306h-2l-70 -141h72v141zM569 420h161v-255h33v-96h-33v-69h-132v69h-173v96z" />
    <glyph glyph-name="questiondown" unicode="&#xbf;" 
d="M167 544h182v-168h-182v168zM296 56h176q-1 -42 -6 -83.5t-29 -76.5q-31 -45 -83 -62.5t-107 -17.5q-12 0 -32.5 1.5t-44 7.5t-48 18.5t-44.5 35t-32.5 55.5t-12.5 81q0 42 13.5 79.5t40.5 68.5l65 75q14 16 16 41.5t3 50.5h176q0 -54 -6.5 -101.5t-33.5 -78.5l-66 -75
q-14 -17 -20 -37t-6 -42q0 -23 9.5 -41.5t29.5 -18.5q21 0 31.5 20t10.5 45v55z" />
    <glyph glyph-name="Agrave" unicode="&#xc0;" horiz-adv-x="574" 
d="M288 558h-2l-46 -293h91zM353 109h-134l-20 -109h-206l169 714h251l168 -714h-206zM147 904h176l36 -144h-119z" />
    <glyph glyph-name="Aacute" unicode="&#xc1;" horiz-adv-x="574" 
d="M288 558h-2l-46 -293h91zM353 109h-134l-20 -109h-206l169 714h251l168 -714h-206zM257 904h176l-93 -144h-119z" />
    <glyph glyph-name="Acircumflex" unicode="&#xc2;" horiz-adv-x="574" 
d="M288 558h-2l-46 -293h91zM353 109h-134l-20 -109h-206l169 714h251l168 -714h-206zM183 908h206l59 -144h-132l-29 81l-35 -81h-126z" />
    <glyph glyph-name="Atilde" unicode="&#xc3;" horiz-adv-x="574" 
d="M288 558h-2l-46 -293h91zM353 109h-134l-20 -109h-206l169 714h251l168 -714h-206zM118 760q2 27 9 52.5t19.5 46t30.5 33t42 12.5q17 0 32.5 -5.5t31.5 -12.5q15 -7 29 -12.5t25 -5.5q16 0 20.5 12.5t6.5 23.5h90q0 -27 -7 -53t-21.5 -46t-36 -32.5t-49.5 -12.5
q-20 0 -36 5.5t-29 12.5t-24 12.5t-20 5.5q-11 0 -16.5 -11t-6.5 -25h-90z" />
    <glyph glyph-name="Adieresis" unicode="&#xc4;" horiz-adv-x="574" 
d="M288 558h-2l-46 -293h91zM353 109h-134l-20 -109h-206l169 714h251l168 -714h-206zM306 904h144v-144h-144v144zM124 904h144v-144h-144v144z" />
    <glyph glyph-name="Aring" unicode="&#xc5;" horiz-adv-x="574" 
d="M288 558h-2l-46 -293h91zM353 109h-134l-20 -109h-206l169 714h251l168 -714h-206zM228 860q0 -24 17 -41t41 -17t41 17t17 41q0 25 -17 42t-41 17t-41 -17t-17 -42zM156 861q0 28 10 51.5t28 40t41.5 25.5t50.5 9t50.5 -9t41.5 -25.5t28 -40t10 -51.5t-10 -51t-28 -39
t-41.5 -25t-50.5 -9t-50.5 9t-41.5 25t-28 39t-10 51z" />
    <glyph glyph-name="AE" unicode="&#xc6;" horiz-adv-x="796" 
d="M374 109h-138l-33 -109h-210l266 714h506v-162h-203v-110h188v-156h-188v-124h212v-162h-400v109zM374 558h-6l-88 -293h94v293z" />
    <glyph glyph-name="Ccedilla" unicode="&#xc7;" horiz-adv-x="537" 
d="M165 -158q18 -10 38 -13t40 -3q19 0 30 8.5t11 22.5t-12.5 22.5t-28.5 8.5q-8 0 -13.5 -1.5t-13.5 -4.5l-29 21l43 85q-62 5 -101 24q-41 20 -62.5 52t-32 75.5t-12 98t-1.5 119.5q0 83 4 151.5t28 117t76.5 75.5t148.5 27q80 0 127 -19.5t72 -51.5t32 -72.5t7 -82.5v-52
h-194v58q0 12 -0.5 27t-4.5 28.5t-12.5 23t-23.5 9.5q-20 0 -30.5 -9t-16 -34.5t-6.5 -72.5t-1 -123q0 -78 1.5 -125.5t7 -72.5t16.5 -33t29 -8q24 0 34.5 27t10.5 94v55h194v-45q0 -95 -30 -157t-100 -89q-42 -16 -96 -17l-26 -50q8 3 17.5 4t17.5 1q36 0 59.5 -24
t23.5 -58q0 -25 -11.5 -43.5t-30 -31t-42 -18.5t-46.5 -6q-15 0 -31 2t-31.5 5.5t-29 7.5t-22.5 8z" />
    <glyph glyph-name="Egrave" unicode="&#xc8;" 
d="M39 714h430v-162h-230v-110h215v-156h-215v-124h239v-162h-439v714zM114 904h176l36 -144h-119z" />
    <glyph glyph-name="Eacute" unicode="&#xc9;" 
d="M39 714h430v-162h-230v-110h215v-156h-215v-124h239v-162h-439v714zM230 904h176l-93 -144h-119z" />
    <glyph glyph-name="Ecircumflex" unicode="&#xca;" 
d="M39 714h430v-162h-230v-110h215v-156h-215v-124h239v-162h-439v714zM151 904h206l59 -144h-132l-29 81l-35 -81h-126z" />
    <glyph glyph-name="Edieresis" unicode="&#xcb;" 
d="M39 714h430v-162h-230v-110h215v-156h-215v-124h239v-162h-439v714zM275 904h144v-144h-144v144zM93 904h144v-144h-144v144z" />
    <glyph glyph-name="Igrave" unicode="&#xcc;" horiz-adv-x="258" 
d="M29 714h200v-714h-200v714zM17 904h176l36 -144h-119z" />
    <glyph glyph-name="Iacute" unicode="&#xcd;" horiz-adv-x="258" 
d="M29 714h200v-714h-200v714zM68 904h176l-93 -144h-119z" />
    <glyph glyph-name="Icircumflex" unicode="&#xce;" horiz-adv-x="258" 
d="M29 714h200v-714h-200v714zM25 904h206l59 -144h-132l-29 81l-35 -81h-126z" />
    <glyph glyph-name="Idieresis" unicode="&#xcf;" horiz-adv-x="258" 
d="M29 714h200v-714h-200v714zM149 904h144v-144h-144v144zM-33 904h144v-144h-144v144z" />
    <glyph glyph-name="Eth" unicode="&#xd0;" horiz-adv-x="574" 
d="M298 307h-59v-163h41q19 0 30.5 9.5t17.5 25t8 35t2 39.5v208q0 27 -2 47.5t-9.5 34t-21.5 20.5t-37 7h-29v-137h59v-126zM39 714h288q67 0 111 -24t68 -69q12 -21 19.5 -41t11.5 -48.5t5.5 -70t1.5 -104.5q0 -39 -1.5 -80.5t-8 -81.5t-19.5 -75t-37 -62t-60 -42.5
t-88 -15.5h-291v307h-53v126h53v281z" />
    <glyph glyph-name="Ntilde" unicode="&#xd1;" horiz-adv-x="593" 
d="M363 714h188v-714h-214l-111 440h-2v-440h-182v714h217l102 -436h2v436zM126 760q2 27 9 52.5t19.5 46t30.5 33t42 12.5q17 0 32.5 -5.5t31.5 -12.5q15 -7 29 -12.5t25 -5.5q16 0 20.5 12.5t6.5 23.5h90q0 -27 -7 -53t-21.5 -46t-36 -32.5t-49.5 -12.5q-20 0 -36 5.5
t-29 12.5t-24 12.5t-20 5.5q-11 0 -16.5 -11t-6.5 -25h-90z" />
    <glyph glyph-name="Ograve" unicode="&#xd2;" horiz-adv-x="556" 
d="M21 357q0 83 4 151.5t28 117t76.5 75.5t148.5 27t148.5 -27t76.5 -75.5t28 -117t4 -151.5q0 -86 -4 -154.5t-28 -116.5t-76.5 -74t-148.5 -26t-148.5 26t-76.5 74t-28 116.5t-4 154.5zM329 357q0 78 -2 125.5t-7.5 72.5t-15.5 33t-26 8t-26 -8t-15.5 -33t-7.5 -72.5
t-2 -125.5t2 -125.5t7.5 -72.5t15.5 -33t26 -8t26 8t15.5 33t7.5 72.5t2 125.5zM128 904h176l36 -144h-119z" />
    <glyph glyph-name="Oacute" unicode="&#xd3;" horiz-adv-x="556" 
d="M21 357q0 83 4 151.5t28 117t76.5 75.5t148.5 27t148.5 -27t76.5 -75.5t28 -117t4 -151.5q0 -86 -4 -154.5t-28 -116.5t-76.5 -74t-148.5 -26t-148.5 26t-76.5 74t-28 116.5t-4 154.5zM329 357q0 78 -2 125.5t-7.5 72.5t-15.5 33t-26 8t-26 -8t-15.5 -33t-7.5 -72.5
t-2 -125.5t2 -125.5t7.5 -72.5t15.5 -33t26 -8t26 8t15.5 33t7.5 72.5t2 125.5zM252 904h176l-93 -144h-119z" />
    <glyph glyph-name="Ocircumflex" unicode="&#xd4;" horiz-adv-x="556" 
d="M21 357q0 83 4 151.5t28 117t76.5 75.5t148.5 27t148.5 -27t76.5 -75.5t28 -117t4 -151.5q0 -86 -4 -154.5t-28 -116.5t-76.5 -74t-148.5 -26t-148.5 26t-76.5 74t-28 116.5t-4 154.5zM329 357q0 78 -2 125.5t-7.5 72.5t-15.5 33t-26 8t-26 -8t-15.5 -33t-7.5 -72.5
t-2 -125.5t2 -125.5t7.5 -72.5t15.5 -33t26 -8t26 8t15.5 33t7.5 72.5t2 125.5zM175 904h206l59 -144h-132l-29 81l-35 -81h-126z" />
    <glyph glyph-name="Otilde" unicode="&#xd5;" horiz-adv-x="556" 
d="M21 357q0 83 4 151.5t28 117t76.5 75.5t148.5 27t148.5 -27t76.5 -75.5t28 -117t4 -151.5q0 -86 -4 -154.5t-28 -116.5t-76.5 -74t-148.5 -26t-148.5 26t-76.5 74t-28 116.5t-4 154.5zM329 357q0 78 -2 125.5t-7.5 72.5t-15.5 33t-26 8t-26 -8t-15.5 -33t-7.5 -72.5
t-2 -125.5t2 -125.5t7.5 -72.5t15.5 -33t26 -8t26 8t15.5 33t7.5 72.5t2 125.5zM109 760q2 27 9 52.5t19.5 46t30.5 33t42 12.5q17 0 32.5 -5.5t31.5 -12.5q15 -7 29 -12.5t25 -5.5q16 0 20.5 12.5t6.5 23.5h90q0 -27 -7 -53t-21.5 -46t-36 -32.5t-49.5 -12.5q-20 0 -36 5.5
t-29 12.5t-24 12.5t-20 5.5q-11 0 -16.5 -11t-6.5 -25h-90z" />
    <glyph glyph-name="Odieresis" unicode="&#xd6;" horiz-adv-x="556" 
d="M21 357q0 83 4 151.5t28 117t76.5 75.5t148.5 27t148.5 -27t76.5 -75.5t28 -117t4 -151.5q0 -86 -4 -154.5t-28 -116.5t-76.5 -74t-148.5 -26t-148.5 26t-76.5 74t-28 116.5t-4 154.5zM329 357q0 78 -2 125.5t-7.5 72.5t-15.5 33t-26 8t-26 -8t-15.5 -33t-7.5 -72.5
t-2 -125.5t2 -125.5t7.5 -72.5t15.5 -33t26 -8t26 8t15.5 33t7.5 72.5t2 125.5zM298 904h144v-144h-144v144zM116 904h144v-144h-144v144z" />
    <glyph glyph-name="multiply" unicode="&#xd7;" horiz-adv-x="600" 
d="M52 399l101 102l147 -145l146 145l102 -102l-146 -146l146 -146l-102 -102l-146 145l-147 -145l-101 102l147 146z" />
    <glyph glyph-name="Oslash" unicode="&#xd8;" horiz-adv-x="556" 
d="M416 775l72 -33l-28 -63q28 -23 43.5 -55.5t22.5 -73t8 -89t1 -104.5q0 -86 -4 -154.5t-28 -116.5t-76.5 -74t-148.5 -26q-67 0 -117 14l-29 -66l-72 33l31 70q-26 23 -40.5 55t-21 72.5t-7.5 88.5t-1 104q0 83 4 151.5t28 117t76.5 75.5t148.5 27q69 0 111 -13zM235 168
q5 -32 15.5 -41t27.5 -9q16 0 26 8t15.5 33t7.5 72.5t2 125.5v23h-2zM319 556q-5 25 -15 32.5t-26 7.5t-26 -8t-15.5 -33t-7.5 -72.5t-2 -125.5v-10h2z" />
    <glyph glyph-name="Ugrave" unicode="&#xd9;" horiz-adv-x="556" 
d="M324 714h200v-472q0 -128 -56.5 -192t-189.5 -64q-73 0 -120.5 15t-75.5 46.5t-39 80t-11 114.5v472h200v-510q0 -46 8.5 -66t37.5 -20t37.5 20t8.5 66v510zM143 904h176l36 -144h-119z" />
    <glyph glyph-name="Uacute" unicode="&#xda;" horiz-adv-x="556" 
d="M324 714h200v-472q0 -128 -56.5 -192t-189.5 -64q-73 0 -120.5 15t-75.5 46.5t-39 80t-11 114.5v472h200v-510q0 -46 8.5 -66t37.5 -20t37.5 20t8.5 66v510zM251 904h176l-93 -144h-119z" />
    <glyph glyph-name="Ucircumflex" unicode="&#xdb;" horiz-adv-x="556" 
d="M324 714h200v-472q0 -128 -56.5 -192t-189.5 -64q-73 0 -120.5 15t-75.5 46.5t-39 80t-11 114.5v472h200v-510q0 -46 8.5 -66t37.5 -20t37.5 20t8.5 66v510zM174 904h206l59 -144h-132l-29 81l-35 -81h-126z" />
    <glyph glyph-name="Udieresis" unicode="&#xdc;" horiz-adv-x="556" 
d="M324 714h200v-472q0 -128 -56.5 -192t-189.5 -64q-73 0 -120.5 15t-75.5 46.5t-39 80t-11 114.5v472h200v-510q0 -46 8.5 -66t37.5 -20t37.5 20t8.5 66v510zM299 904h144v-144h-144v144zM117 904h144v-144h-144v144z" />
    <glyph glyph-name="Yacute" unicode="&#xdd;" horiz-adv-x="538" 
d="M332 714h217l-180 -433v-281h-200v281l-180 433h222l57 -249h2zM253 904h176l-93 -144h-119z" />
    <glyph glyph-name="Thorn" unicode="&#xde;" horiz-adv-x="556" 
d="M39 714h200v-120h65q115 0 173 -52t58 -170q0 -60 -17.5 -102t-49 -69t-74.5 -39.5t-94 -12.5h-61v-149h-200v714zM239 293h22q14 0 26.5 2t21.5 10.5t14.5 24t5.5 42.5q0 37 -15 57.5t-53 20.5h-22v-157z" />
    <glyph glyph-name="germandbls" unicode="&#xdf;" horiz-adv-x="537" 
d="M32 520q0 58 14 98t44 64.5t76 35t111 10.5q79 0 123.5 -17.5t66.5 -45.5t27.5 -63t5.5 -69q0 -50 -18 -82.5t-68 -47.5v-2q31 -8 51 -22.5t31 -35t15 -46t4 -55.5q0 -60 -5.5 -106.5t-25.5 -78.5t-58.5 -48.5t-105.5 -16.5q-16 0 -36 1t-30 5v123q4 -1 9 -2t16 -1
q18 0 30 14t12 56v78q0 11 -1.5 22.5t-6 20.5t-13.5 15t-24 6q-5 0 -11 -1t-11 -2v132q4 -1 12 -2t16 -1q19 0 24.5 19t5.5 45q0 45 -10 63.5t-33 18.5q-9 0 -18 -2t-15.5 -11t-11 -26.5t-4.5 -48.5v-514h-188v520z" />
    <glyph glyph-name="agrave" unicode="&#xe0;" 
d="M462 80q0 -43 18 -80h-182q-5 14 -7 28.5t-2 28.5l-2 1q-17 -40 -51 -56t-76 -16q-78 0 -112.5 40.5t-34.5 119.5q0 45 10 75t27 49t41 29.5t51 16.5l90 21q30 7 42 18.5t12 37.5q0 20 -10.5 31t-26.5 11q-15 0 -24.5 -5.5t-14.5 -14t-6.5 -19.5t-1.5 -23h-170
q0 92 51 137t167 45q66 0 107.5 -12.5t65 -34t31.5 -50t8 -59.5v-319zM286 262q-9 -6 -20.5 -10.5t-27.5 -10.5q-24 -9 -30.5 -27t-6.5 -42t9.5 -39t29.5 -15q14 0 23 6t14 15.5t7 21t2 23.5v78zM146 738h176l36 -144h-119z" />
    <glyph glyph-name="aacute" unicode="&#xe1;" 
d="M462 80q0 -43 18 -80h-182q-5 14 -7 28.5t-2 28.5l-2 1q-17 -40 -51 -56t-76 -16q-78 0 -112.5 40.5t-34.5 119.5q0 45 10 75t27 49t41 29.5t51 16.5l90 21q30 7 42 18.5t12 37.5q0 20 -10.5 31t-26.5 11q-15 0 -24.5 -5.5t-14.5 -14t-6.5 -19.5t-1.5 -23h-170
q0 92 51 137t167 45q66 0 107.5 -12.5t65 -34t31.5 -50t8 -59.5v-319zM286 262q-9 -6 -20.5 -10.5t-27.5 -10.5q-24 -9 -30.5 -27t-6.5 -42t9.5 -39t29.5 -15q14 0 23 6t14 15.5t7 21t2 23.5v78zM225 738h176l-93 -144h-119z" />
    <glyph glyph-name="acircumflex" unicode="&#xe2;" 
d="M462 80q0 -43 18 -80h-182q-5 14 -7 28.5t-2 28.5l-2 1q-17 -40 -51 -56t-76 -16q-78 0 -112.5 40.5t-34.5 119.5q0 45 10 75t27 49t41 29.5t51 16.5l90 21q30 7 42 18.5t12 37.5q0 20 -10.5 31t-26.5 11q-15 0 -24.5 -5.5t-14.5 -14t-6.5 -19.5t-1.5 -23h-170
q0 92 51 137t167 45q66 0 107.5 -12.5t65 -34t31.5 -50t8 -59.5v-319zM286 262q-9 -6 -20.5 -10.5t-27.5 -10.5q-24 -9 -30.5 -27t-6.5 -42t9.5 -39t29.5 -15q14 0 23 6t14 15.5t7 21t2 23.5v78zM148 738h206l59 -144h-132l-29 81l-35 -81h-126z" />
    <glyph glyph-name="atilde" unicode="&#xe3;" 
d="M462 80q0 -43 18 -80h-182q-5 14 -7 28.5t-2 28.5l-2 1q-17 -40 -51 -56t-76 -16q-78 0 -112.5 40.5t-34.5 119.5q0 45 10 75t27 49t41 29.5t51 16.5l90 21q30 7 42 18.5t12 37.5q0 20 -10.5 31t-26.5 11q-15 0 -24.5 -5.5t-14.5 -14t-6.5 -19.5t-1.5 -23h-170
q0 92 51 137t167 45q66 0 107.5 -12.5t65 -34t31.5 -50t8 -59.5v-319zM286 262q-9 -6 -20.5 -10.5t-27.5 -10.5q-24 -9 -30.5 -27t-6.5 -42t9.5 -39t29.5 -15q14 0 23 6t14 15.5t7 21t2 23.5v78zM83 594q2 27 9 52.5t19.5 46t30.5 33t42 12.5q17 0 32.5 -5.5t31.5 -12.5
q15 -7 29 -12.5t25 -5.5q16 0 20.5 12.5t6.5 23.5h90q0 -27 -7 -53t-21.5 -46t-36 -32.5t-49.5 -12.5q-20 0 -36 5.5t-29 12.5t-24 12.5t-20 5.5q-11 0 -16.5 -11t-6.5 -25h-90z" />
    <glyph glyph-name="adieresis" unicode="&#xe4;" 
d="M462 80q0 -43 18 -80h-182q-5 14 -7 28.5t-2 28.5l-2 1q-17 -40 -51 -56t-76 -16q-78 0 -112.5 40.5t-34.5 119.5q0 45 10 75t27 49t41 29.5t51 16.5l90 21q30 7 42 18.5t12 37.5q0 20 -10.5 31t-26.5 11q-15 0 -24.5 -5.5t-14.5 -14t-6.5 -19.5t-1.5 -23h-170
q0 92 51 137t167 45q66 0 107.5 -12.5t65 -34t31.5 -50t8 -59.5v-319zM286 262q-9 -6 -20.5 -10.5t-27.5 -10.5q-24 -9 -30.5 -27t-6.5 -42t9.5 -39t29.5 -15q14 0 23 6t14 15.5t7 21t2 23.5v78zM270 738h144v-144h-144v144zM88 738h144v-144h-144v144z" />
    <glyph glyph-name="aring" unicode="&#xe5;" 
d="M462 80q0 -43 18 -80h-182q-5 14 -7 28.5t-2 28.5l-2 1q-17 -40 -51 -56t-76 -16q-78 0 -112.5 40.5t-34.5 119.5q0 45 10 75t27 49t41 29.5t51 16.5l90 21q30 7 42 18.5t12 37.5q0 20 -10.5 31t-26.5 11q-15 0 -24.5 -5.5t-14.5 -14t-6.5 -19.5t-1.5 -23h-170
q0 92 51 137t167 45q66 0 107.5 -12.5t65 -34t31.5 -50t8 -59.5v-319zM286 262q-9 -6 -20.5 -10.5t-27.5 -10.5q-24 -9 -30.5 -27t-6.5 -42t9.5 -39t29.5 -15q14 0 23 6t14 15.5t7 21t2 23.5v78zM192 706q0 -24 17 -41t41 -17t41 17t17 41q0 25 -17 42t-41 17t-41 -17
t-17 -42zM120 707q0 28 10 51.5t28 40t41.5 25.5t50.5 9t50.5 -9t41.5 -25.5t28 -40t10 -51.5t-10 -51t-28 -39t-41.5 -25t-50.5 -9t-50.5 9t-41.5 25t-28 39t-10 51z" />
    <glyph glyph-name="ae" unicode="&#xe6;" horiz-adv-x="741" 
d="M462 168q0 -11 1 -23t5 -22t12.5 -16.5t23.5 -6.5q28 0 35 24t7 66h176q0 -57 -14.5 -95t-43.5 -62t-68 -35.5t-84 -11.5q-24 0 -54 3.5t-57.5 14t-48.5 28t-27 46.5h-2q-6 -23 -20.5 -40.5t-33.5 -29t-41 -17t-44 -5.5q-95 0 -133 41t-38 120q0 45 10 74.5t27 48.5
t41 29.5t51 16.5l90 21q30 7 42 18.5t12 37.5q0 20 -10.5 31t-26.5 11q-15 0 -24.5 -5.5t-14.5 -14t-6.5 -19.5t-1.5 -23h-170q0 92 51 137t167 45q36 0 60.5 -7t39.5 -16t22.5 -18.5t10.5 -15.5q18 33 55 45t85 12q76 0 117.5 -24t61 -66t23 -98t3.5 -119v-9h-266v-71z
M546 373q0 40 -9.5 54t-32.5 14q-22 0 -32 -14t-10 -54v-32h84v32zM286 262q-9 -6 -20.5 -10.5t-27.5 -10.5q-24 -9 -30.5 -27t-6.5 -42t9.5 -39t29.5 -15q14 0 23 6t14 15.5t7 21t2 23.5v78z" />
    <glyph glyph-name="ccedilla" unicode="&#xe7;" horiz-adv-x="481" 
d="M142 -158q18 -10 38 -13t40 -3q19 0 30 8.5t11 22.5t-12.5 22.5t-28.5 8.5q-8 0 -13.5 -1.5t-13.5 -4.5l-29 21l43 85q-51 4 -84 21q-36 18 -57.5 44.5t-33.5 60t-15.5 73.5t-3.5 84q0 57 7 108.5t31.5 90.5t71.5 62t127 23q66 0 109.5 -13t68.5 -40.5t35 -70.5t10 -104
h-179v25q0 42 -9 59.5t-34 17.5q-14 0 -22.5 -5.5t-13 -22.5t-6.5 -48t-2 -82q0 -50 1 -81t5.5 -48.5t13 -23.5t23.5 -6q14 0 23 5.5t14.5 19t7.5 37t2 58.5h176q0 -66 -11 -112t-37 -75q-26 -30 -69 -45q-18 -5 -39 -8.5t-46 -4.5l-26 -51q8 3 17.5 4t17.5 1q36 0 59.5 -24
t23.5 -58q0 -25 -11.5 -43.5t-30 -31t-42 -18.5t-46.5 -6q-15 0 -31 2t-31.5 5.5t-29 7.5t-22.5 8z" />
    <glyph glyph-name="egrave" unicode="&#xe8;" horiz-adv-x="481" 
d="M291 373q0 40 -10 54t-33 14q-21 0 -31 -14t-10 -54v-32h84v32zM207 168q0 -11 1 -23t5 -22t12.5 -16.5t23.5 -6.5q28 0 35 24t7 66h176q0 -57 -14.5 -95t-43.5 -62q-57 -47 -159 -47q-80 0 -127 23t-71.5 62t-31.5 91t-7 109t7 108.5t31.5 90.5t71.5 62t127 23
q82 0 127.5 -24t66.5 -66t25 -98t4 -119v-9h-266v-71zM103 738h176l36 -144h-119z" />
    <glyph glyph-name="eacute" unicode="&#xe9;" horiz-adv-x="481" 
d="M291 373q0 40 -10 54t-33 14q-21 0 -31 -14t-10 -54v-32h84v32zM207 168q0 -11 1 -23t5 -22t12.5 -16.5t23.5 -6.5q28 0 35 24t7 66h176q0 -57 -14.5 -95t-43.5 -62q-57 -47 -159 -47q-80 0 -127 23t-71.5 62t-31.5 91t-7 109t7 108.5t31.5 90.5t71.5 62t127 23
q82 0 127.5 -24t66.5 -66t25 -98t4 -119v-9h-266v-71zM225 738h176l-93 -144h-119z" />
    <glyph glyph-name="ecircumflex" unicode="&#xea;" horiz-adv-x="481" 
d="M291 373q0 40 -10 54t-33 14q-21 0 -31 -14t-10 -54v-32h84v32zM207 168q0 -11 1 -23t5 -22t12.5 -16.5t23.5 -6.5q28 0 35 24t7 66h176q0 -57 -14.5 -95t-43.5 -62q-57 -47 -159 -47q-80 0 -127 23t-71.5 62t-31.5 91t-7 109t7 108.5t31.5 90.5t71.5 62t127 23
q82 0 127.5 -24t66.5 -66t25 -98t4 -119v-9h-266v-71zM146 738h206l59 -144h-132l-29 81l-35 -81h-126z" />
    <glyph glyph-name="edieresis" unicode="&#xeb;" horiz-adv-x="481" 
d="M291 373q0 40 -10 54t-33 14q-21 0 -31 -14t-10 -54v-32h84v32zM207 168q0 -11 1 -23t5 -22t12.5 -16.5t23.5 -6.5q28 0 35 24t7 66h176q0 -57 -14.5 -95t-43.5 -62q-57 -47 -159 -47q-80 0 -127 23t-71.5 62t-31.5 91t-7 109t7 108.5t31.5 90.5t71.5 62t127 23
q82 0 127.5 -24t66.5 -66t25 -98t4 -119v-9h-266v-71zM269 738h144v-144h-144v144zM87 738h144v-144h-144v144z" />
    <glyph glyph-name="igrave" unicode="&#xec;" horiz-adv-x="258" 
d="M32 541h194v-541h-194v541zM13 738h176l36 -144h-119z" />
    <glyph glyph-name="iacute" unicode="&#xed;" horiz-adv-x="258" 
d="M32 541h194v-541h-194v541zM71 738h176l-93 -144h-119z" />
    <glyph glyph-name="icircumflex" unicode="&#xee;" horiz-adv-x="258" 
d="M32 541h194v-541h-194v541zM27 738h206l59 -144h-132l-29 81l-35 -81h-126z" />
    <glyph glyph-name="idieresis" unicode="&#xef;" horiz-adv-x="258" 
d="M32 541h194v-541h-194v541zM149 738h144v-144h-144v144zM-33 738h144v-144h-144v144z" />
    <glyph glyph-name="eth" unicode="&#xf0;" 
d="M71 637l72 34q-18 18 -37 34t-36 30l147 77q21 -18 40 -36t36 -35l86 40l53 -67l-79 -37q36 -41 61 -81.5t41.5 -85t24 -96t7.5 -112.5q0 -71 -7 -129t-31.5 -99.5t-71.5 -64.5t-127 -23t-127 22t-71.5 58.5t-31.5 84.5t-7 100q0 147 51 211t147 64q17 0 33.5 -4
t29.5 -14l2 2q-8 21 -27 49t-43 49l-82 -38zM207 256q0 -43 2 -70.5t6.5 -44t13 -23t21.5 -6.5t21.5 6.5t13 23t6.5 44t2 70.5t-2 70.5t-6.5 44t-13 23t-21.5 6.5t-21.5 -6.5t-13 -23t-6.5 -44t-2 -70.5z" />
    <glyph glyph-name="ntilde" unicode="&#xf1;" horiz-adv-x="519" 
d="M298 358q0 31 -9.5 42t-28.5 11q-20 0 -29.5 -15t-9.5 -38v-358h-194v541h188v-62h2q22 40 58 58t85 18q26 0 50 -7.5t42 -24t29 -42.5t11 -63v-418h-194v358zM82 594q2 27 9 52.5t19.5 46t30.5 33t42 12.5q17 0 32.5 -5.5t31.5 -12.5q15 -7 29 -12.5t25 -5.5
q16 0 20.5 12.5t6.5 23.5h90q0 -27 -7 -53t-21.5 -46t-36 -32.5t-49.5 -12.5q-20 0 -36 5.5t-29 12.5t-24 12.5t-20 5.5q-11 0 -16.5 -11t-6.5 -25h-90z" />
    <glyph glyph-name="ograve" unicode="&#xf2;" 
d="M207 271q0 -47 2 -78t6.5 -49t13 -25t21.5 -7t21.5 7t13 25t6.5 49t2 78t-2 78t-6.5 49t-13 25t-21.5 7t-21.5 -7t-13 -25t-6.5 -49t-2 -78zM250 555q80 0 127 -23t71.5 -62t31.5 -90.5t7 -108.5t-7 -109t-31.5 -91t-71.5 -62t-127 -23t-127 23t-71.5 62t-31.5 91t-7 109
t7 108.5t31.5 90.5t71.5 62t127 23zM97 738h176l36 -144h-119z" />
    <glyph glyph-name="oacute" unicode="&#xf3;" 
d="M207 271q0 -47 2 -78t6.5 -49t13 -25t21.5 -7t21.5 7t13 25t6.5 49t2 78t-2 78t-6.5 49t-13 25t-21.5 7t-21.5 -7t-13 -25t-6.5 -49t-2 -78zM250 555q80 0 127 -23t71.5 -62t31.5 -90.5t7 -108.5t-7 -109t-31.5 -91t-71.5 -62t-127 -23t-127 23t-71.5 62t-31.5 91t-7 109
t7 108.5t31.5 90.5t71.5 62t127 23zM225 738h176l-93 -144h-119z" />
    <glyph glyph-name="ocircumflex" unicode="&#xf4;" 
d="M207 271q0 -47 2 -78t6.5 -49t13 -25t21.5 -7t21.5 7t13 25t6.5 49t2 78t-2 78t-6.5 49t-13 25t-21.5 7t-21.5 -7t-13 -25t-6.5 -49t-2 -78zM250 555q80 0 127 -23t71.5 -62t31.5 -90.5t7 -108.5t-7 -109t-31.5 -91t-71.5 -62t-127 -23t-127 23t-71.5 62t-31.5 91t-7 109
t7 108.5t31.5 90.5t71.5 62t127 23zM146 738h206l59 -144h-132l-29 81l-35 -81h-126z" />
    <glyph glyph-name="otilde" unicode="&#xf5;" 
d="M207 271q0 -47 2 -78t6.5 -49t13 -25t21.5 -7t21.5 7t13 25t6.5 49t2 78t-2 78t-6.5 49t-13 25t-21.5 7t-21.5 -7t-13 -25t-6.5 -49t-2 -78zM250 555q80 0 127 -23t71.5 -62t31.5 -90.5t7 -108.5t-7 -109t-31.5 -91t-71.5 -62t-127 -23t-127 23t-71.5 62t-31.5 91t-7 109
t7 108.5t31.5 90.5t71.5 62t127 23zM82 594q2 27 9 52.5t19.5 46t30.5 33t42 12.5q17 0 32.5 -5.5t31.5 -12.5q15 -7 29 -12.5t25 -5.5q16 0 20.5 12.5t6.5 23.5h90q0 -27 -7 -53t-21.5 -46t-36 -32.5t-49.5 -12.5q-20 0 -36 5.5t-29 12.5t-24 12.5t-20 5.5q-11 0 -16.5 -11
t-6.5 -25h-90z" />
    <glyph glyph-name="odieresis" unicode="&#xf6;" 
d="M207 271q0 -47 2 -78t6.5 -49t13 -25t21.5 -7t21.5 7t13 25t6.5 49t2 78t-2 78t-6.5 49t-13 25t-21.5 7t-21.5 -7t-13 -25t-6.5 -49t-2 -78zM250 555q80 0 127 -23t71.5 -62t31.5 -90.5t7 -108.5t-7 -109t-31.5 -91t-71.5 -62t-127 -23t-127 23t-71.5 62t-31.5 91t-7 109
t7 108.5t31.5 90.5t71.5 62t127 23zM269 738h144v-144h-144v144zM87 738h144v-144h-144v144z" />
    <glyph glyph-name="divide" unicode="&#xf7;" horiz-adv-x="600" 
d="M194 37q0 22 8 41.5t22.5 34t33.5 22.5t42 8q22 0 41.5 -8t34 -22.5t22.5 -34t8 -41.5q0 -23 -8 -42t-22.5 -33.5t-34 -22.5t-41.5 -8q-23 0 -42 8t-33.5 22.5t-22.5 33.5t-8 42zM194 469q0 22 8 41.5t22.5 34t33.5 22.5t42 8q22 0 41.5 -8t34 -22.5t22.5 -34t8 -41.5
q0 -23 -8 -42t-22.5 -33.5t-34 -22.5t-41.5 -8q-23 0 -42 8t-33.5 22.5t-22.5 33.5t-8 42zM47 325h506v-144h-506v144z" />
    <glyph glyph-name="oslash" unicode="&#xf8;" 
d="M206 137q6 -17 16.5 -24t27.5 -7q18 0 28.5 7t16.5 26t8 50.5t2 81.5v14q0 8 -1 11zM290 414q-11 21 -40 21q-18 0 -28.5 -7t-16.5 -25.5t-8 -50.5t-2 -81v-12h2zM67 50q-35 40 -44.5 97.5t-9.5 123.5q0 57 7 108.5t31.5 90.5t71.5 62t127 23q68 0 115 -18l42 68l64 -39
l-43 -69q38 -42 48.5 -100.5t10.5 -125.5q0 -57 -7 -109t-31.5 -91t-71.5 -62t-127 -23q-79 0 -124 22l-44 -72l-62 38z" />
    <glyph glyph-name="ugrave" unicode="&#xf9;" horiz-adv-x="519" 
d="M304 62h-2q-22 -40 -58 -58t-85 -18q-26 0 -50 7.5t-42 24t-29 42.5t-11 63v418h194v-358q0 -31 9.5 -42t28.5 -11q20 0 29.5 15t9.5 38v358h194v-541h-188v62zM118 738h176l36 -144h-119z" />
    <glyph glyph-name="uacute" unicode="&#xfa;" horiz-adv-x="519" 
d="M304 62h-2q-22 -40 -58 -58t-85 -18q-26 0 -50 7.5t-42 24t-29 42.5t-11 63v418h194v-358q0 -31 9.5 -42t28.5 -11q20 0 29.5 15t9.5 38v358h194v-541h-188v62zM233 738h176l-93 -144h-119z" />
    <glyph glyph-name="ucircumflex" unicode="&#xfb;" horiz-adv-x="519" 
d="M304 62h-2q-22 -40 -58 -58t-85 -18q-26 0 -50 7.5t-42 24t-29 42.5t-11 63v418h194v-358q0 -31 9.5 -42t28.5 -11q20 0 29.5 15t9.5 38v358h194v-541h-188v62zM156 738h206l59 -144h-132l-29 81l-35 -81h-126z" />
    <glyph glyph-name="udieresis" unicode="&#xfc;" horiz-adv-x="519" 
d="M304 62h-2q-22 -40 -58 -58t-85 -18q-26 0 -50 7.5t-42 24t-29 42.5t-11 63v418h194v-358q0 -31 9.5 -42t28.5 -11q20 0 29.5 15t9.5 38v358h194v-541h-188v62zM279 738h144v-144h-144v144zM97 738h144v-144h-144v144z" />
    <glyph glyph-name="yacute" unicode="&#xfd;" horiz-adv-x="481" 
d="M-4 541h200l49 -328h2l44 328h194l-139 -536q-13 -48 -26 -82.5t-34 -56.5t-55 -32t-89 -10q-32 0 -53 2.5t-39 6.5v126q25 -3 51 -3q24 0 35 15q10 13 10 29zM222 738h176l-93 -144h-119z" />
    <glyph glyph-name="thorn" unicode="&#xfe;" horiz-adv-x="519" 
d="M306 270q0 77 -7.5 109t-36.5 32t-36.5 -32t-7.5 -109q0 -76 7.5 -108t36.5 -32t36.5 32t7.5 108zM27 714h194v-235h2q3 10 8.5 23t17.5 25t31.5 20t50.5 8q42 0 71 -13t48 -34.5t29 -51t14.5 -62t5.5 -66.5t1 -66q0 -57 -5.5 -107.5t-22.5 -88t-47.5 -59t-81.5 -21.5
q-39 0 -72.5 20t-47.5 57h-2v-239h-194v890z" />
    <glyph glyph-name="ydieresis" unicode="&#xff;" horiz-adv-x="481" 
d="M-4 541h200l49 -328h2l44 328h194l-139 -536q-13 -48 -26 -82.5t-34 -56.5t-55 -32t-89 -10q-32 0 -53 2.5t-39 6.5v126q25 -3 51 -3q24 0 35 15q10 13 10 29zM265 738h144v-144h-144v144zM83 738h144v-144h-144v144z" />
    <glyph glyph-name="Amacron" unicode="&#x100;" horiz-adv-x="574" 
d="M288 558h-2l-46 -293h91zM353 109h-134l-20 -109h-206l169 714h251l168 -714h-206zM124 883h326v-102h-326v102z" />
    <glyph glyph-name="amacron" unicode="&#x101;" 
d="M462 80q0 -43 18 -80h-182q-5 14 -7 28.5t-2 28.5l-2 1q-17 -40 -51 -56t-76 -16q-78 0 -112.5 40.5t-34.5 119.5q0 45 10 75t27 49t41 29.5t51 16.5l90 21q30 7 42 18.5t12 37.5q0 20 -10.5 31t-26.5 11q-15 0 -24.5 -5.5t-14.5 -14t-6.5 -19.5t-1.5 -23h-170
q0 92 51 137t167 45q66 0 107.5 -12.5t65 -34t31.5 -50t8 -59.5v-319zM286 262q-9 -6 -20.5 -10.5t-27.5 -10.5q-24 -9 -30.5 -27t-6.5 -42t9.5 -39t29.5 -15q14 0 23 6t14 15.5t7 21t2 23.5v78zM91 717h326v-102h-326v102z" />
    <glyph glyph-name="Abreve" unicode="&#x102;" horiz-adv-x="574" 
d="M288 558h-2l-46 -293h91zM353 109h-134l-20 -109h-206l169 714h251l168 -714h-206zM217 908q0 -27 20 -44.5t48 -17.5q32 0 52 16.5t20 45.5h84q0 -37 -12 -65t-33.5 -47.5t-51.5 -29.5t-65 -10q-63 0 -104.5 39.5t-41.5 112.5h84z" />
    <glyph glyph-name="abreve" unicode="&#x103;" 
d="M462 80q0 -43 18 -80h-182q-5 14 -7 28.5t-2 28.5l-2 1q-17 -40 -51 -56t-76 -16q-78 0 -112.5 40.5t-34.5 119.5q0 45 10 75t27 49t41 29.5t51 16.5l90 21q30 7 42 18.5t12 37.5q0 20 -10.5 31t-26.5 11q-15 0 -24.5 -5.5t-14.5 -14t-6.5 -19.5t-1.5 -23h-170
q0 92 51 137t167 45q66 0 107.5 -12.5t65 -34t31.5 -50t8 -59.5v-319zM286 262q-9 -6 -20.5 -10.5t-27.5 -10.5q-24 -9 -30.5 -27t-6.5 -42t9.5 -39t29.5 -15q14 0 23 6t14 15.5t7 21t2 23.5v78zM182 742q0 -27 20 -44.5t48 -17.5q32 0 52 16.5t20 45.5h84q0 -37 -12 -65
t-33.5 -47.5t-51.5 -29.5t-65 -10q-63 0 -104.5 39.5t-41.5 112.5h84z" />
    <glyph glyph-name="Aogonek" unicode="&#x104;" horiz-adv-x="574" 
d="M507 -203q-35 -20 -66 -28.5t-70 -8.5q-31 0 -52 6.5t-35 18.5q-13 12 -20 26t-7 44t26 66.5t92 78.5l-22 109h-134l-20 -109h-206l169 714h251l168 -714h-119q-65 -54 -81 -82t-16 -52q0 -38 41 -38q36 0 77 22zM288 558h-2l-46 -293h91z" />
    <glyph glyph-name="aogonek" unicode="&#x105;" 
d="M462 80q0 -43 18 -80h-100q-44 -57 -57 -85q-12 -27 -12 -49q0 -38 37 -38q32 0 69 22l22 -53q-32 -20 -60 -28.5t-63 -8.5q-28 0 -46.5 6.5t-31.5 18.5q-12 12 -18 26t-6 44t19.5 64.5t64.5 80.5q-5 14 -7 28.5t-2 28.5l-2 1q-17 -40 -51 -56t-76 -16q-78 0 -112.5 40.5
t-34.5 119.5q0 45 10 75t27 49t41 29.5t51 16.5l90 21q30 7 42 18.5t12 37.5q0 20 -10.5 31t-26.5 11q-15 0 -24.5 -5.5t-14.5 -14t-6.5 -19.5t-1.5 -23h-170q0 92 51 137t167 45q66 0 107.5 -12.5t65 -34t31.5 -50t8 -59.5v-319zM286 262q-9 -6 -20.5 -10.5t-27.5 -10.5
q-24 -9 -30.5 -27t-6.5 -42t9.5 -39t29.5 -15q14 0 23 6t14 15.5t7 21t2 23.5v78z" />
    <glyph glyph-name="Cacute" unicode="&#x106;" horiz-adv-x="537" 
d="M322 508q0 12 -0.5 27t-4.5 28.5t-12.5 23t-23.5 9.5q-20 0 -30.5 -9t-16 -34.5t-6.5 -72.5t-1 -123q0 -78 1.5 -125.5t7 -72.5t16.5 -33t29 -8q24 0 34.5 27t10.5 94v55h194v-45q0 -63 -13 -111.5t-42 -82.5t-75 -51.5t-112 -17.5q-96 0 -148.5 26t-76.5 74t-28 116.5
t-4 154.5q0 83 4 151.5t28 117t76.5 75.5t148.5 27q80 0 127 -19.5t72 -51.5t32 -72.5t7 -82.5v-52h-194v58zM253 904h176l-93 -144h-119z" />
    <glyph glyph-name="cacute" unicode="&#x107;" horiz-adv-x="481" 
d="M294 352q0 42 -9 59.5t-34 17.5q-14 0 -22.5 -5.5t-13 -22.5t-6.5 -48t-2 -82q0 -50 1 -81t5.5 -48.5t13 -23.5t23.5 -6q14 0 23 5.5t14.5 19t7.5 37t2 58.5h176q0 -66 -11 -112t-37 -75q-26 -30 -69 -44.5t-106 -14.5q-80 0 -127 23t-71.5 62t-31.5 91t-7 109t7 108.5
t31.5 90.5t71.5 62t127 23q66 0 109.5 -13t68.5 -40.5t35 -70.5t10 -104h-179v25zM223 738h176l-93 -144h-119z" />
    <glyph glyph-name="Ccircumflex" unicode="&#x108;" horiz-adv-x="537" 
d="M322 508q0 12 -0.5 27t-4.5 28.5t-12.5 23t-23.5 9.5q-20 0 -30.5 -9t-16 -34.5t-6.5 -72.5t-1 -123q0 -78 1.5 -125.5t7 -72.5t16.5 -33t29 -8q24 0 34.5 27t10.5 94v55h194v-45q0 -63 -13 -111.5t-42 -82.5t-75 -51.5t-112 -17.5q-96 0 -148.5 26t-76.5 74t-28 116.5
t-4 154.5q0 83 4 151.5t28 117t76.5 75.5t148.5 27q80 0 127 -19.5t72 -51.5t32 -72.5t7 -82.5v-52h-194v58zM173 904h206l59 -144h-132l-29 81l-35 -81h-126z" />
    <glyph glyph-name="ccircumflex" unicode="&#x109;" horiz-adv-x="481" 
d="M294 352q0 42 -9 59.5t-34 17.5q-14 0 -22.5 -5.5t-13 -22.5t-6.5 -48t-2 -82q0 -50 1 -81t5.5 -48.5t13 -23.5t23.5 -6q14 0 23 5.5t14.5 19t7.5 37t2 58.5h176q0 -66 -11 -112t-37 -75q-26 -30 -69 -44.5t-106 -14.5q-80 0 -127 23t-71.5 62t-31.5 91t-7 109t7 108.5
t31.5 90.5t71.5 62t127 23q66 0 109.5 -13t68.5 -40.5t35 -70.5t10 -104h-179v25zM149 738h206l59 -144h-132l-29 81l-35 -81h-126z" />
    <glyph glyph-name="Cdotaccent" unicode="&#x10a;" horiz-adv-x="537" 
d="M322 508q0 12 -0.5 27t-4.5 28.5t-12.5 23t-23.5 9.5q-20 0 -30.5 -9t-16 -34.5t-6.5 -72.5t-1 -123q0 -78 1.5 -125.5t7 -72.5t16.5 -33t29 -8q24 0 34.5 27t10.5 94v55h194v-45q0 -63 -13 -111.5t-42 -82.5t-75 -51.5t-112 -17.5q-96 0 -148.5 26t-76.5 74t-28 116.5
t-4 154.5q0 83 4 151.5t28 117t76.5 75.5t148.5 27q80 0 127 -19.5t72 -51.5t32 -72.5t7 -82.5v-52h-194v58zM207 904h144v-144h-144v144z" />
    <glyph glyph-name="cdotaccent" unicode="&#x10b;" horiz-adv-x="481" 
d="M294 352q0 42 -9 59.5t-34 17.5q-14 0 -22.5 -5.5t-13 -22.5t-6.5 -48t-2 -82q0 -50 1 -81t5.5 -48.5t13 -23.5t23.5 -6q14 0 23 5.5t14.5 19t7.5 37t2 58.5h176q0 -66 -11 -112t-37 -75q-26 -30 -69 -44.5t-106 -14.5q-80 0 -127 23t-71.5 62t-31.5 91t-7 109t7 108.5
t31.5 90.5t71.5 62t127 23q66 0 109.5 -13t68.5 -40.5t35 -70.5t10 -104h-179v25zM179 738h144v-144h-144v144z" />
    <glyph glyph-name="Ccaron" unicode="&#x10c;" horiz-adv-x="537" 
d="M322 508q0 12 -0.5 27t-4.5 28.5t-12.5 23t-23.5 9.5q-20 0 -30.5 -9t-16 -34.5t-6.5 -72.5t-1 -123q0 -78 1.5 -125.5t7 -72.5t16.5 -33t29 -8q24 0 34.5 27t10.5 94v55h194v-45q0 -63 -13 -111.5t-42 -82.5t-75 -51.5t-112 -17.5q-96 0 -148.5 26t-76.5 74t-28 116.5
t-4 154.5q0 83 4 151.5t28 117t76.5 75.5t148.5 27q80 0 127 -19.5t72 -51.5t32 -72.5t7 -82.5v-52h-194v58zM117 904h126l35 -81l29 81h132l-59 -144h-206z" />
    <glyph glyph-name="ccaron" unicode="&#x10d;" horiz-adv-x="481" 
d="M294 352q0 42 -9 59.5t-34 17.5q-14 0 -22.5 -5.5t-13 -22.5t-6.5 -48t-2 -82q0 -50 1 -81t5.5 -48.5t13 -23.5t23.5 -6q14 0 23 5.5t14.5 19t7.5 37t2 58.5h176q0 -66 -11 -112t-37 -75q-26 -30 -69 -44.5t-106 -14.5q-80 0 -127 23t-71.5 62t-31.5 91t-7 109t7 108.5
t31.5 90.5t71.5 62t127 23q66 0 109.5 -13t68.5 -40.5t35 -70.5t10 -104h-179v25zM91 738h126l35 -81l29 81h132l-59 -144h-206z" />
    <glyph glyph-name="Dcaron" unicode="&#x10e;" horiz-adv-x="574" 
d="M39 714h288q67 0 111 -24t68 -69q12 -21 19.5 -41t11.5 -48.5t5.5 -70t1.5 -104.5q0 -39 -1.5 -80.5t-8 -81.5t-19.5 -75t-37 -62t-60 -42.5t-88 -15.5h-291v714zM239 144h41q19 0 30.5 9.5t17.5 25t8 35t2 39.5v208q0 27 -2 47.5t-9.5 34t-21.5 20.5t-37 7h-29v-426z
M104 904h126l35 -81l29 81h132l-59 -144h-206z" />
    <glyph glyph-name="dcaron" unicode="&#x10f;" horiz-adv-x="662" 
d="M301 271q0 76 -7.5 108t-36.5 32t-36.5 -32t-7.5 -108q0 -77 7.5 -109t36.5 -32t36.5 32t7.5 109zM298 714h194v-714h-191v62h-2q-3 -10 -9 -23t-18 -25t-32.5 -20t-51.5 -8q-42 0 -71 13t-48 34.5t-29 51t-14.5 62t-5.5 66.5t-1 66q0 57 5.5 107t22.5 87.5t47.5 59.5
t81.5 22q39 0 72.5 -20t47.5 -57h2v236zM549 714h151l-55 -144h-119z" />
    <glyph glyph-name="Dcroat" unicode="&#x110;" horiz-adv-x="574" 
d="M298 307h-59v-163h41q19 0 30.5 9.5t17.5 25t8 35t2 39.5v208q0 27 -2 47.5t-9.5 34t-21.5 20.5t-37 7h-29v-137h59v-126zM39 714h288q67 0 111 -24t68 -69q12 -21 19.5 -41t11.5 -48.5t5.5 -70t1.5 -104.5q0 -39 -1.5 -80.5t-8 -81.5t-19.5 -75t-37 -62t-60 -42.5
t-88 -15.5h-291v307h-53v126h53v281z" />
    <glyph glyph-name="dcroat" unicode="&#x111;" horiz-adv-x="569" 
d="M219 654h79v60h194v-60h87v-82h-87v-572h-191v62h-2q-3 -10 -9 -23t-18 -25t-32.5 -20t-51.5 -8q-42 0 -71 13t-48 34.5t-29 51t-14.5 62t-5.5 66.5t-1 66q0 57 5.5 107t22.5 87.5t47.5 59.5t81.5 22q39 0 72.5 -20t47.5 -57h2v94h-79v82zM301 271q0 76 -7.5 108
t-36.5 32t-36.5 -32t-7.5 -108q0 -77 7.5 -109t36.5 -32t36.5 32t7.5 109z" />
    <glyph glyph-name="Emacron" unicode="&#x112;" 
d="M39 714h430v-162h-230v-110h215v-156h-215v-124h239v-162h-439v714zM92 883h326v-102h-326v102z" />
    <glyph glyph-name="emacron" unicode="&#x113;" horiz-adv-x="481" 
d="M291 373q0 40 -10 54t-33 14q-21 0 -31 -14t-10 -54v-32h84v32zM207 168q0 -11 1 -23t5 -22t12.5 -16.5t23.5 -6.5q28 0 35 24t7 66h176q0 -57 -14.5 -95t-43.5 -62q-57 -47 -159 -47q-80 0 -127 23t-71.5 62t-31.5 91t-7 109t7 108.5t31.5 90.5t71.5 62t127 23
q82 0 127.5 -24t66.5 -66t25 -98t4 -119v-9h-266v-71zM88 717h326v-102h-326v102z" />
    <glyph glyph-name="Ebreve" unicode="&#x114;" 
d="M39 714h430v-162h-230v-110h215v-156h-215v-124h239v-162h-439v714zM180 908q0 -27 20 -44.5t48 -17.5q32 0 52 16.5t20 45.5h84q0 -37 -12 -65t-33.5 -47.5t-51.5 -29.5t-65 -10q-63 0 -104.5 39.5t-41.5 112.5h84z" />
    <glyph glyph-name="ebreve" unicode="&#x115;" horiz-adv-x="481" 
d="M291 373q0 40 -10 54t-33 14q-21 0 -31 -14t-10 -54v-32h84v32zM207 168q0 -11 1 -23t5 -22t12.5 -16.5t23.5 -6.5q28 0 35 24t7 66h176q0 -57 -14.5 -95t-43.5 -62q-57 -47 -159 -47q-80 0 -127 23t-71.5 62t-31.5 91t-7 109t7 108.5t31.5 90.5t71.5 62t127 23
q82 0 127.5 -24t66.5 -66t25 -98t4 -119v-9h-266v-71zM180 742q0 -27 20 -44.5t48 -17.5q32 0 52 16.5t20 45.5h84q0 -37 -12 -65t-33.5 -47.5t-51.5 -29.5t-65 -10q-63 0 -104.5 39.5t-41.5 112.5h84z" />
    <glyph glyph-name="Edotaccent" unicode="&#x116;" 
d="M39 714h430v-162h-230v-110h215v-156h-215v-124h239v-162h-439v714zM186 904h144v-144h-144v144z" />
    <glyph glyph-name="edotaccent" unicode="&#x117;" horiz-adv-x="481" 
d="M291 373q0 40 -10 54t-33 14q-21 0 -31 -14t-10 -54v-32h84v32zM207 168q0 -11 1 -23t5 -22t12.5 -16.5t23.5 -6.5q28 0 35 24t7 66h176q0 -57 -14.5 -95t-43.5 -62q-57 -47 -159 -47q-80 0 -127 23t-71.5 62t-31.5 91t-7 109t7 108.5t31.5 90.5t71.5 62t127 23
q82 0 127.5 -24t66.5 -66t25 -98t4 -119v-9h-266v-71zM179 738h144v-144h-144v144z" />
    <glyph glyph-name="Eogonek" unicode="&#x118;" 
d="M479 -203q-35 -20 -66 -28.5t-70 -8.5q-31 0 -52 6.5t-35 18.5q-13 12 -20 26t-7 44t26 66.5t92 78.5h-308v714h430v-162h-230v-110h215v-156h-215v-124h239v-162h-44q-65 -54 -81 -82t-16 -52q0 -38 41 -38q36 0 77 22z" />
    <glyph glyph-name="eogonek" unicode="&#x119;" horiz-adv-x="481" 
d="M372 -203q-35 -20 -66 -28.5t-70 -8.5q-31 0 -52 6.5t-35 18.5q-13 12 -20 26t-7 44q0 29 26 67q23 31 72 65q-61 5 -97 22q-36 18 -57.5 44.5t-33.5 60t-15.5 73.5t-3.5 84q0 57 7 108.5t31.5 90.5t71.5 62t127 23q82 0 127.5 -24t66.5 -66t25 -98t4 -119v-9h-266v-71
q0 -11 1 -23t5 -22t12.5 -16.5t23.5 -6.5q28 0 35 24t7 66h176q0 -57 -14.5 -95t-43.5 -62q-29 -25 -69 -35q-5 -2 -11 -3t-12 -3q-56 -48 -71 -74q-16 -28 -16 -52q0 -38 41 -38q36 0 77 22zM291 373q0 40 -10 54t-33 14q-21 0 -31 -14t-10 -54v-32h84v32z" />
    <glyph glyph-name="Ecaron" unicode="&#x11a;" 
d="M39 714h430v-162h-230v-110h215v-156h-215v-124h239v-162h-439v714zM94 904h126l35 -81l29 81h132l-59 -144h-206z" />
    <glyph glyph-name="ecaron" unicode="&#x11b;" horiz-adv-x="481" 
d="M291 373q0 40 -10 54t-33 14q-21 0 -31 -14t-10 -54v-32h84v32zM207 168q0 -11 1 -23t5 -22t12.5 -16.5t23.5 -6.5q28 0 35 24t7 66h176q0 -57 -14.5 -95t-43.5 -62q-57 -47 -159 -47q-80 0 -127 23t-71.5 62t-31.5 91t-7 109t7 108.5t31.5 90.5t71.5 62t127 23
q82 0 127.5 -24t66.5 -66t25 -98t4 -119v-9h-266v-71zM91 738h126l35 -81l29 81h132l-59 -144h-206z" />
    <glyph glyph-name="Gcircumflex" unicode="&#x11c;" horiz-adv-x="556" 
d="M284 389h245v-389h-139l-5 58h-2q-13 -24 -29.5 -38t-35 -21.5t-39.5 -10t-43 -2.5q-51 0 -86 14t-58.5 39t-36.5 60t-19 76t-7.5 87t-1.5 94q0 76 5.5 144t30.5 118.5t76 80t143 29.5q74 0 121 -17.5t73.5 -49.5t36.5 -76.5t10 -98.5h-188v29q0 40 -11 60.5t-40 20.5
q-18 0 -28 -7.5t-15.5 -20t-6.5 -28.5t-1 -32v-294q0 -17 1.5 -34t6.5 -30.5t15.5 -22.5t28.5 -9q36 0 46 25t10 65v49h-57v132zM181 904h206l59 -144h-132l-29 81l-35 -81h-126z" />
    <glyph glyph-name="gcircumflex" unicode="&#x11d;" horiz-adv-x="519" 
d="M307 541h185v-519q0 -59 -17 -98.5t-48.5 -63.5t-75.5 -34t-97 -10q-77 0 -120 15.5t-64.5 38.5t-27.5 50.5t-8 51.5h176q0 -20 9 -30q10 -12 32 -12q25 0 36 11t11 39v107h-2q-18 -40 -50.5 -54.5t-72.5 -14.5q-48 0 -78 23.5t-47 61t-23 84.5t-6 94q0 46 4 94.5
t21 88.5t50.5 65.5t92.5 25.5q46 0 74 -19.5t44 -61.5h2v67zM301 271q0 76 -7.5 108t-36.5 32t-36.5 -32t-7.5 -108q0 -57 7.5 -86t35.5 -29q29 0 37 29t8 86zM165 738h206l59 -144h-132l-29 81l-35 -81h-126z" />
    <glyph glyph-name="Gbreve" unicode="&#x11e;" horiz-adv-x="556" 
d="M284 389h245v-389h-139l-5 58h-2q-13 -24 -29.5 -38t-35 -21.5t-39.5 -10t-43 -2.5q-51 0 -86 14t-58.5 39t-36.5 60t-19 76t-7.5 87t-1.5 94q0 76 5.5 144t30.5 118.5t76 80t143 29.5q74 0 121 -17.5t73.5 -49.5t36.5 -76.5t10 -98.5h-188v29q0 40 -11 60.5t-40 20.5
q-18 0 -28 -7.5t-15.5 -20t-6.5 -28.5t-1 -32v-294q0 -17 1.5 -34t6.5 -30.5t15.5 -22.5t28.5 -9q36 0 46 25t10 65v49h-57v132zM213 908q0 -27 20 -44.5t48 -17.5q32 0 52 16.5t20 45.5h84q0 -37 -12 -65t-33.5 -47.5t-51.5 -29.5t-65 -10q-63 0 -104.5 39.5t-41.5 112.5
h84z" />
    <glyph glyph-name="gbreve" unicode="&#x11f;" horiz-adv-x="519" 
d="M307 541h185v-519q0 -59 -17 -98.5t-48.5 -63.5t-75.5 -34t-97 -10q-77 0 -120 15.5t-64.5 38.5t-27.5 50.5t-8 51.5h176q0 -20 9 -30q10 -12 32 -12q25 0 36 11t11 39v107h-2q-18 -40 -50.5 -54.5t-72.5 -14.5q-48 0 -78 23.5t-47 61t-23 84.5t-6 94q0 46 4 94.5
t21 88.5t50.5 65.5t92.5 25.5q46 0 74 -19.5t44 -61.5h2v67zM301 271q0 76 -7.5 108t-36.5 32t-36.5 -32t-7.5 -108q0 -57 7.5 -86t35.5 -29q29 0 37 29t8 86zM202 742q0 -27 20 -44.5t48 -17.5q32 0 52 16.5t20 45.5h84q0 -37 -12 -65t-33.5 -47.5t-51.5 -29.5t-65 -10
q-63 0 -104.5 39.5t-41.5 112.5h84z" />
    <glyph glyph-name="Gdotaccent" unicode="&#x120;" horiz-adv-x="556" 
d="M284 389h245v-389h-139l-5 58h-2q-13 -24 -29.5 -38t-35 -21.5t-39.5 -10t-43 -2.5q-51 0 -86 14t-58.5 39t-36.5 60t-19 76t-7.5 87t-1.5 94q0 76 5.5 144t30.5 118.5t76 80t143 29.5q74 0 121 -17.5t73.5 -49.5t36.5 -76.5t10 -98.5h-188v29q0 40 -11 60.5t-40 20.5
q-18 0 -28 -7.5t-15.5 -20t-6.5 -28.5t-1 -32v-294q0 -17 1.5 -34t6.5 -30.5t15.5 -22.5t28.5 -9q36 0 46 25t10 65v49h-57v132zM212 904h144v-144h-144v144z" />
    <glyph glyph-name="gdotaccent" unicode="&#x121;" horiz-adv-x="519" 
d="M307 541h185v-519q0 -59 -17 -98.5t-48.5 -63.5t-75.5 -34t-97 -10q-77 0 -120 15.5t-64.5 38.5t-27.5 50.5t-8 51.5h176q0 -20 9 -30q10 -12 32 -12q25 0 36 11t11 39v107h-2q-18 -40 -50.5 -54.5t-72.5 -14.5q-48 0 -78 23.5t-47 61t-23 84.5t-6 94q0 46 4 94.5
t21 88.5t50.5 65.5t92.5 25.5q46 0 74 -19.5t44 -61.5h2v67zM301 271q0 76 -7.5 108t-36.5 32t-36.5 -32t-7.5 -108q0 -57 7.5 -86t35.5 -29q29 0 37 29t8 86zM198 738h144v-144h-144v144z" />
    <glyph glyph-name="Gcommaaccent" unicode="&#x122;" horiz-adv-x="556" 
d="M284 389h245v-389h-139l-5 58h-2q-13 -24 -29.5 -38t-35 -21.5t-39.5 -10t-43 -2.5q-51 0 -86 14t-58.5 39t-36.5 60t-19 76t-7.5 87t-1.5 94q0 76 5.5 144t30.5 118.5t76 80t143 29.5q74 0 121 -17.5t73.5 -49.5t36.5 -76.5t10 -98.5h-188v29q0 40 -11 60.5t-40 20.5
q-18 0 -28 -7.5t-15.5 -20t-6.5 -28.5t-1 -32v-294q0 -17 1.5 -34t6.5 -30.5t15.5 -22.5t28.5 -9q36 0 46 25t10 65v49h-57v132zM205 -50h154v-93q-2 -25 -10 -43t-23.5 -29.5t-40 -17.5t-60.5 -7v46q27 3 37 9.5t15 21.5h-72v113z" />
    <glyph glyph-name="gcommaaccent" unicode="&#x123;" horiz-adv-x="519" 
d="M307 541h185v-519q0 -59 -17 -98.5t-48.5 -63.5t-75.5 -34t-97 -10q-77 0 -120 15.5t-64.5 38.5t-27.5 50.5t-8 51.5h176q0 -20 9 -30q10 -12 32 -12q25 0 36 11t11 39v107h-2q-18 -40 -50.5 -54.5t-72.5 -14.5q-48 0 -78 23.5t-47 61t-23 84.5t-6 94q0 46 4 94.5
t21 88.5t50.5 65.5t92.5 25.5q46 0 74 -19.5t44 -61.5h2v67zM301 271q0 76 -7.5 108t-36.5 32t-36.5 -32t-7.5 -108q0 -57 7.5 -86t35.5 -29q29 0 37 29t8 86zM356 601h-154v93q2 25 10 43t23.5 29.5t40 17t60.5 7.5v-46q-27 -3 -37 -9.5t-15 -21.5h72v-113z" />
    <glyph glyph-name="Hcircumflex" unicode="&#x124;" horiz-adv-x="574" 
d="M335 714h200v-714h-200v288h-96v-288h-200v714h200v-258h96v258zM185 904h206l59 -144h-132l-29 81l-35 -81h-126z" />
    <glyph glyph-name="hcircumflex" unicode="&#x125;" horiz-adv-x="519" 
d="M298 358q0 31 -9.5 42t-28.5 11q-20 0 -29.5 -15t-9.5 -38v-358h-194v714h194v-235h2q22 40 57 58t80 18q26 0 50 -7.5t42 -24t29 -42.5t11 -63v-418h-194v358zM156 904h206l59 -144h-132l-29 81l-35 -81h-126z" />
    <glyph glyph-name="Hbar" unicode="&#x126;" horiz-adv-x="574" 
d="M335 714h200v-714h-200v288h-96v-288h-200v714h200v-131h96v131zM335 438v63h-96v-63h96z" />
    <glyph glyph-name="hbar" unicode="&#x127;" horiz-adv-x="571" 
d="M350 358q0 31 -9.5 42t-28.5 11q-20 0 -29.5 -15t-9.5 -38v-358h-194v572h-85v82h85v60h194v-60h77v-82h-77v-93h2q22 40 57 58t80 18q26 0 50 -7.5t42 -24t29 -42.5t11 -63v-418h-194v358z" />
    <glyph glyph-name="Itilde" unicode="&#x128;" horiz-adv-x="258" 
d="M29 714h200v-714h-200v714zM-36 760q2 27 9 52.5t19.5 46t30.5 33t42 12.5q17 0 32.5 -5.5t31.5 -12.5q15 -7 29 -12.5t25 -5.5q16 0 20.5 12.5t6.5 23.5h90q0 -27 -7 -53t-21.5 -46t-36 -32.5t-49.5 -12.5q-20 0 -36 5.5t-29 12.5t-24 12.5t-20 5.5q-11 0 -16.5 -11
t-6.5 -25h-90z" />
    <glyph glyph-name="itilde" unicode="&#x129;" horiz-adv-x="258" 
d="M32 541h194v-541h-194v541zM-34 594q2 27 9 52.5t19.5 46t30.5 33t42 12.5q17 0 32.5 -5.5t31.5 -12.5q15 -7 29 -12.5t25 -5.5q16 0 20.5 12.5t6.5 23.5h90q0 -27 -7 -53t-21.5 -46t-36 -32.5t-49.5 -12.5q-20 0 -36 5.5t-29 12.5t-24 12.5t-20 5.5q-11 0 -16.5 -11
t-6.5 -25h-90z" />
    <glyph glyph-name="Imacron" unicode="&#x12a;" horiz-adv-x="258" 
d="M29 714h200v-714h-200v714zM-33 883h326v-102h-326v102z" />
    <glyph glyph-name="imacron" unicode="&#x12b;" horiz-adv-x="258" 
d="M32 541h194v-541h-194v541zM-32 717h326v-102h-326v102z" />
    <glyph glyph-name="Iogonek" unicode="&#x12e;" horiz-adv-x="258" 
d="M248 -203q-35 -20 -66 -28.5t-70 -8.5q-31 0 -52 6.5t-35 18.5q-13 12 -20 26t-7 44t26 66.5t92 78.5h-87v714h200v-714h-26q-65 -54 -81 -82t-16 -52q0 -38 41 -38q36 0 77 22z" />
    <glyph glyph-name="iogonek" unicode="&#x12f;" horiz-adv-x="258" 
d="M237 -203q-35 -20 -66 -28.5t-70 -8.5q-31 0 -52 6.5t-35 18.5q-13 12 -20 26t-7 44t26 66.5t92 78.5h-73v541h194v-541h-34q-65 -54 -81 -82t-16 -52q0 -38 41 -38q36 0 77 22zM32 722h194v-138h-194v138z" />
    <glyph glyph-name="Idotaccent" unicode="&#x130;" horiz-adv-x="258" 
d="M29 714h200v-714h-200v714zM59 904h144v-144h-144v144z" />
    <glyph glyph-name="dotlessi" unicode="&#x131;" horiz-adv-x="258" 
d="M32 541h194v-541h-194v541z" />
    <glyph glyph-name="Jcircumflex" unicode="&#x134;" 
d="M264 714h200v-514q0 -59 -17 -99.5t-48 -66t-75.5 -37t-99.5 -11.5q-56 0 -94 11.5t-62.5 29.5t-38 40.5t-19.5 44t-7 40.5t-1 31v49h182v-53q0 -28 8.5 -44.5t31.5 -16.5q26 0 33 21.5t7 69.5v505zM256 904h206l59 -144h-132l-29 81l-35 -81h-126z" />
    <glyph glyph-name="jcircumflex" unicode="&#x135;" horiz-adv-x="258" 
d="M226 -4q0 -52 -7 -85t-25.5 -52.5t-51 -27t-84.5 -7.5q-12 0 -37.5 1t-54.5 3v131q6 -1 14 -2t16 -1q13 0 24.5 6t11.5 34v545h194v-545zM24 738h206l59 -144h-132l-29 81l-35 -81h-126z" />
    <glyph glyph-name="Kcommaaccent" unicode="&#x136;" horiz-adv-x="574" 
d="M356 714h217l-176 -314l198 -400h-225l-102 237l-29 -55v-182h-200v714h200v-272h2zM229 -50h154v-93q-2 -25 -10 -43t-23.5 -29.5t-40 -17.5t-60.5 -7v46q27 3 37 9.5t15 21.5h-72v113z" />
    <glyph glyph-name="kcommaaccent" unicode="&#x137;" horiz-adv-x="519" 
d="M318 541h206l-149 -224l163 -317h-206l-82 177l-29 -44v-133h-194v714h197v-339h2zM198 -50h154v-93q-2 -25 -10 -43t-23.5 -29.5t-40 -17.5t-60.5 -7v46q27 3 37 9.5t15 21.5h-72v113z" />
    <glyph glyph-name="Lacute" unicode="&#x139;" horiz-adv-x="463" 
d="M39 714h200v-552h218v-162h-418v714zM112 904h176l-93 -144h-119z" />
    <glyph glyph-name="lacute" unicode="&#x13a;" horiz-adv-x="258" 
d="M32 714h194v-714h-194v714zM73 904h176l-93 -144h-119z" />
    <glyph glyph-name="Lcommaaccent" unicode="&#x13b;" horiz-adv-x="463" 
d="M39 714h200v-552h218v-162h-418v714zM170 -50h154v-93q-2 -25 -10 -43t-23.5 -29.5t-40 -17.5t-60.5 -7v46q27 3 37 9.5t15 21.5h-72v113z" />
    <glyph glyph-name="lcommaaccent" unicode="&#x13c;" horiz-adv-x="258" 
d="M32 714h194v-714h-194v714zM54 -50h154v-93q-2 -25 -10 -43t-23.5 -29.5t-40 -17.5t-60.5 -7v46q27 3 37 9.5t15 21.5h-72v113z" />
    <glyph glyph-name="Lcaron" unicode="&#x13d;" horiz-adv-x="463" 
d="M39 714h200v-552h218v-162h-418v714zM300 714h151l-55 -144h-119z" />
    <glyph glyph-name="lcaron" unicode="&#x13e;" horiz-adv-x="395" 
d="M32 714h194v-714h-194v714zM282 714h151l-55 -144h-119z" />
    <glyph glyph-name="Ldot" unicode="&#x13f;" horiz-adv-x="463" 
d="M39 714h200v-552h218v-162h-418v714zM288 542h144v-144h-144v144z" />
    <glyph glyph-name="ldot" unicode="&#x140;" horiz-adv-x="446" 
d="M32 714h194v-714h-194v714zM272 542h144v-144h-144v144z" />
    <glyph glyph-name="Lslash" unicode="&#x141;" horiz-adv-x="463" 
d="M364 528v-126l-125 -75v-165h218v-162h-418v212l-63 -38v126l63 38v376h200v-261z" />
    <glyph glyph-name="lslash" unicode="&#x142;" horiz-adv-x="294" 
d="M296 525v-120l-52 -32v-373h-194v261l-52 -32v120l52 32v333h194v-221z" />
    <glyph glyph-name="Nacute" unicode="&#x143;" horiz-adv-x="593" 
d="M363 714h188v-714h-214l-111 440h-2v-440h-182v714h217l102 -436h2v436zM269 904h176l-93 -144h-119z" />
    <glyph glyph-name="nacute" unicode="&#x144;" horiz-adv-x="519" 
d="M298 358q0 31 -9.5 42t-28.5 11q-20 0 -29.5 -15t-9.5 -38v-358h-194v541h188v-62h2q22 40 58 58t85 18q26 0 50 -7.5t42 -24t29 -42.5t11 -63v-418h-194v358zM231 738h176l-93 -144h-119z" />
    <glyph glyph-name="Ncommaaccent" unicode="&#x145;" horiz-adv-x="593" 
d="M363 714h188v-714h-214l-111 440h-2v-440h-182v714h217l102 -436h2v436zM219 -50h154v-93q-2 -25 -10 -43t-23.5 -29.5t-40 -17.5t-60.5 -7v46q27 3 37 9.5t15 21.5h-72v113z" />
    <glyph glyph-name="ncommaaccent" unicode="&#x146;" horiz-adv-x="519" 
d="M298 358q0 31 -9.5 42t-28.5 11q-20 0 -29.5 -15t-9.5 -38v-358h-194v541h188v-62h2q22 40 58 58t85 18q26 0 50 -7.5t42 -24t29 -42.5t11 -63v-418h-194v358zM181 -50h154v-93q-2 -25 -10 -43t-23.5 -29.5t-40 -17.5t-60.5 -7v46q27 3 37 9.5t15 21.5h-72v113z" />
    <glyph glyph-name="Ncaron" unicode="&#x147;" horiz-adv-x="593" 
d="M363 714h188v-714h-214l-111 440h-2v-440h-182v714h217l102 -436h2v436zM139 904h126l35 -81l29 81h132l-59 -144h-206z" />
    <glyph glyph-name="ncaron" unicode="&#x148;" horiz-adv-x="519" 
d="M298 358q0 31 -9.5 42t-28.5 11q-20 0 -29.5 -15t-9.5 -38v-358h-194v541h188v-62h2q22 40 58 58t85 18q26 0 50 -7.5t42 -24t29 -42.5t11 -63v-418h-194v358zM98 738h126l35 -81l29 81h132l-59 -144h-206z" />
    <glyph glyph-name="Omacron" unicode="&#x14c;" horiz-adv-x="556" 
d="M21 357q0 83 4 151.5t28 117t76.5 75.5t148.5 27t148.5 -27t76.5 -75.5t28 -117t4 -151.5q0 -86 -4 -154.5t-28 -116.5t-76.5 -74t-148.5 -26t-148.5 26t-76.5 74t-28 116.5t-4 154.5zM329 357q0 78 -2 125.5t-7.5 72.5t-15.5 33t-26 8t-26 -8t-15.5 -33t-7.5 -72.5
t-2 -125.5t2 -125.5t7.5 -72.5t15.5 -33t26 -8t26 8t15.5 33t7.5 72.5t2 125.5zM114 883h326v-102h-326v102z" />
    <glyph glyph-name="omacron" unicode="&#x14d;" 
d="M207 271q0 -47 2 -78t6.5 -49t13 -25t21.5 -7t21.5 7t13 25t6.5 49t2 78t-2 78t-6.5 49t-13 25t-21.5 7t-21.5 -7t-13 -25t-6.5 -49t-2 -78zM250 555q80 0 127 -23t71.5 -62t31.5 -90.5t7 -108.5t-7 -109t-31.5 -91t-71.5 -62t-127 -23t-127 23t-71.5 62t-31.5 91t-7 109
t7 108.5t31.5 90.5t71.5 62t127 23zM87 717h326v-102h-326v102z" />
    <glyph glyph-name="Obreve" unicode="&#x14e;" horiz-adv-x="556" 
d="M21 357q0 83 4 151.5t28 117t76.5 75.5t148.5 27t148.5 -27t76.5 -75.5t28 -117t4 -151.5q0 -86 -4 -154.5t-28 -116.5t-76.5 -74t-148.5 -26t-148.5 26t-76.5 74t-28 116.5t-4 154.5zM329 357q0 78 -2 125.5t-7.5 72.5t-15.5 33t-26 8t-26 -8t-15.5 -33t-7.5 -72.5
t-2 -125.5t2 -125.5t7.5 -72.5t15.5 -33t26 -8t26 8t15.5 33t7.5 72.5t2 125.5zM208 908q0 -27 20 -44.5t48 -17.5q32 0 52 16.5t20 45.5h84q0 -37 -12 -65t-33.5 -47.5t-51.5 -29.5t-65 -10q-63 0 -104.5 39.5t-41.5 112.5h84z" />
    <glyph glyph-name="obreve" unicode="&#x14f;" 
d="M207 271q0 -47 2 -78t6.5 -49t13 -25t21.5 -7t21.5 7t13 25t6.5 49t2 78t-2 78t-6.5 49t-13 25t-21.5 7t-21.5 -7t-13 -25t-6.5 -49t-2 -78zM250 555q80 0 127 -23t71.5 -62t31.5 -90.5t7 -108.5t-7 -109t-31.5 -91t-71.5 -62t-127 -23t-127 23t-71.5 62t-31.5 91t-7 109
t7 108.5t31.5 90.5t71.5 62t127 23zM180 742q0 -27 20 -44.5t48 -17.5q32 0 52 16.5t20 45.5h84q0 -37 -12 -65t-33.5 -47.5t-51.5 -29.5t-65 -10q-63 0 -104.5 39.5t-41.5 112.5h84z" />
    <glyph glyph-name="Ohungarumlaut" unicode="&#x150;" horiz-adv-x="556" 
d="M21 357q0 83 4 151.5t28 117t76.5 75.5t148.5 27t148.5 -27t76.5 -75.5t28 -117t4 -151.5q0 -86 -4 -154.5t-28 -116.5t-76.5 -74t-148.5 -26t-148.5 26t-76.5 74t-28 116.5t-4 154.5zM329 357q0 78 -2 125.5t-7.5 72.5t-15.5 33t-26 8t-26 -8t-15.5 -33t-7.5 -72.5
t-2 -125.5t2 -125.5t7.5 -72.5t15.5 -33t26 -8t26 8t15.5 33t7.5 72.5t2 125.5zM363 904h176l-93 -144h-119zM151 904h176l-93 -144h-119z" />
    <glyph glyph-name="ohungarumlaut" unicode="&#x151;" 
d="M207 271q0 -47 2 -78t6.5 -49t13 -25t21.5 -7t21.5 7t13 25t6.5 49t2 78t-2 78t-6.5 49t-13 25t-21.5 7t-21.5 -7t-13 -25t-6.5 -49t-2 -78zM250 555q80 0 127 -23t71.5 -62t31.5 -90.5t7 -108.5t-7 -109t-31.5 -91t-71.5 -62t-127 -23t-127 23t-71.5 62t-31.5 91t-7 109
t7 108.5t31.5 90.5t71.5 62t127 23zM329 738h176l-93 -144h-119zM117 738h176l-93 -144h-119z" />
    <glyph glyph-name="OE" unicode="&#x152;" horiz-adv-x="759" 
d="M353 714h375v-162h-211v-110h196v-156h-196v-124h220v-162h-384v25q-24 -21 -54 -30t-62 -9q-81 0 -125 30t-64 81t-23.5 118.5t-3.5 141.5q0 84 6 152t27.5 117t64 75.5t115.5 26.5q13 0 29 -2t32.5 -7t31.5 -13t26 -21v29zM329 357q0 78 -2 125.5t-7.5 72.5t-15.5 33
t-26 8t-26 -8t-15.5 -33t-7.5 -72.5t-2 -125.5t2 -125.5t7.5 -72.5t15.5 -33t26 -8t26 8t15.5 33t7.5 72.5t2 125.5z" />
    <glyph glyph-name="oe" unicode="&#x153;" horiz-adv-x="742" 
d="M463 168q0 -11 1 -23t5 -22t12.5 -16.5t23.5 -6.5q28 0 35 24t7 66h176q0 -97 -49.5 -150.5t-149.5 -53.5q-22 0 -44 2t-41.5 8.5t-36 19.5t-26.5 34q-11 -20 -28 -32.5t-37.5 -19.5t-43.5 -9.5t-46 -2.5q-63 0 -103 22t-63.5 60.5t-32.5 90.5t-9 112q0 59 9 111
t33.5 90.5t67 60.5t110.5 22q32 0 58 -5.5t45 -14.5t31 -19.5t16 -20.5q10 18 26 29.5t35 18.5t39.5 9.5t40.5 2.5q76 0 117.5 -24t61 -66t23 -98t3.5 -119v-9h-266v-71zM547 373q0 40 -10 54t-33 14q-21 0 -31 -14t-10 -54v-32h84v32zM293 271q0 51 -1.5 82t-6 48t-13 22.5
t-22.5 5.5t-22.5 -5.5t-13 -22.5t-6 -48t-1.5 -82q0 -50 1.5 -81t6 -48.5t13 -23.5t22.5 -6t22.5 6t13 23.5t6 48.5t1.5 81z" />
    <glyph glyph-name="Racute" unicode="&#x154;" horiz-adv-x="574" 
d="M39 714h300q104 0 150.5 -48.5t46.5 -138.5q0 -43 -9 -73.5t-24.5 -51t-37.5 -32t-48 -15.5v-2q30 -2 55.5 -16.5t39.5 -40.5q14 -24 16.5 -57t2.5 -65v-59q0 -30 2.5 -53t6.5 -31q7 -15 21 -21v-10h-212q-5 6 -8 18t-4.5 26.5t-2 30t-0.5 28.5q0 26 -1.5 53t-1.5 53
q0 46 -14.5 59t-40.5 13h-37v-281h-200v714zM239 413h29q12 0 24.5 3.5t22 12.5t15.5 25.5t6 42.5q0 44 -20 58.5t-54 14.5h-23v-157zM237 904h176l-93 -144h-119z" />
    <glyph glyph-name="racute" unicode="&#x155;" horiz-adv-x="370" 
d="M27 541h188v-80h2q14 39 44.5 66.5t70.5 27.5q16 0 22 -1t11 -2v-177q-11 1 -24 3q-5 1 -15 1h-22q-50 0 -66.5 -25.5t-16.5 -73.5v-280h-194v541zM132 738h176l-93 -144h-119z" />
    <glyph glyph-name="Rcommaaccent" unicode="&#x156;" horiz-adv-x="574" 
d="M39 714h300q104 0 150.5 -48.5t46.5 -138.5q0 -43 -9 -73.5t-24.5 -51t-37.5 -32t-48 -15.5v-2q30 -2 55.5 -16.5t39.5 -40.5q14 -24 16.5 -57t2.5 -65v-59q0 -30 2.5 -53t6.5 -31q7 -15 21 -21v-10h-212q-5 6 -8 18t-4.5 26.5t-2 30t-0.5 28.5q0 26 -1.5 53t-1.5 53
q0 46 -14.5 59t-40.5 13h-37v-281h-200v714zM239 413h29q12 0 24.5 3.5t22 12.5t15.5 25.5t6 42.5q0 44 -20 58.5t-54 14.5h-23v-157zM209 -50h154v-93q-2 -25 -10 -43t-23.5 -29.5t-40 -17.5t-60.5 -7v46q27 3 37 9.5t15 21.5h-72v113z" />
    <glyph glyph-name="rcommaaccent" unicode="&#x157;" horiz-adv-x="370" 
d="M27 541h188v-80h2q14 39 44.5 66.5t70.5 27.5q16 0 22 -1t11 -2v-177q-11 1 -24 3q-5 1 -15 1h-22q-50 0 -66.5 -25.5t-16.5 -73.5v-280h-194v541zM46 -50h154v-93q-2 -25 -10 -43t-23.5 -29.5t-40 -17.5t-60.5 -7v46q27 3 37 9.5t15 21.5h-72v113z" />
    <glyph glyph-name="Rcaron" unicode="&#x158;" horiz-adv-x="574" 
d="M39 714h300q104 0 150.5 -48.5t46.5 -138.5q0 -43 -9 -73.5t-24.5 -51t-37.5 -32t-48 -15.5v-2q30 -2 55.5 -16.5t39.5 -40.5q14 -24 16.5 -57t2.5 -65v-59q0 -30 2.5 -53t6.5 -31q7 -15 21 -21v-10h-212q-5 6 -8 18t-4.5 26.5t-2 30t-0.5 28.5q0 26 -1.5 53t-1.5 53
q0 46 -14.5 59t-40.5 13h-37v-281h-200v714zM239 413h29q12 0 24.5 3.5t22 12.5t15.5 25.5t6 42.5q0 44 -20 58.5t-54 14.5h-23v-157zM110 904h126l35 -81l29 81h132l-59 -144h-206z" />
    <glyph glyph-name="rcaron" unicode="&#x159;" horiz-adv-x="370" 
d="M27 541h188v-80h2q14 39 44.5 66.5t70.5 27.5q16 0 22 -1t11 -2v-177q-11 1 -24 3q-5 1 -15 1h-22q-50 0 -66.5 -25.5t-16.5 -73.5v-280h-194v541zM34 738h126l35 -81l29 81h132l-59 -144h-206z" />
    <glyph glyph-name="Sacute" unicode="&#x15a;" horiz-adv-x="537" 
d="M313 538q0 23 -10.5 40.5t-36.5 17.5q-23 0 -34.5 -16t-11.5 -38q0 -36 22 -56t55 -34.5t72 -29t72 -38.5t55 -63t22 -103q0 -62 -15 -106t-46.5 -72t-81.5 -41t-119 -13q-57 0 -101.5 10.5t-74.5 35t-45.5 64.5t-15.5 99v19h194v-33q0 -26 12 -44.5t38 -18.5
q28 0 38.5 20t10.5 43q0 17 -3 28t-9 18.5t-14 13t-17 11.5q-20 11 -46 22t-53 25q-41 20 -68.5 38.5t-44.5 41t-24 51t-7 68.5q0 75 20.5 118t55.5 68q26 18 64.5 31t98.5 13q76 0 122 -17.5t71.5 -47.5t34 -69.5t8.5 -84.5h-188v29zM246 904h176l-93 -144h-119z" />
    <glyph glyph-name="sacute" unicode="&#x15b;" horiz-adv-x="463" 
d="M180 174q2 -17 3.5 -30t6.5 -23t14.5 -15.5t26.5 -5.5q13 0 20.5 5t12 12t6 14t1.5 11q0 10 -2 17t-9.5 13.5t-22.5 13t-42 15.5q-47 16 -81 31t-56.5 34t-33 44.5t-10.5 62.5q0 41 12 74.5t37.5 57.5t66 37t96.5 13q81 0 125 -19t64 -46t23.5 -55.5t3.5 -47.5h-164
q0 11 -1.5 21.5t-6.5 17.5q-10 15 -39 15q-15 0 -28 -7t-13 -30q0 -10 5.5 -17.5t21.5 -16t44 -18.5t72 -25q20 -7 41.5 -17t39 -27t28.5 -45t11 -71q0 -50 -18 -84.5t-48 -56t-70.5 -31t-85.5 -9.5q-53 0 -93.5 8t-68.5 29t-43 57.5t-16 93.5h170zM205 738h176l-93 -144
h-119z" />
    <glyph glyph-name="Scircumflex" unicode="&#x15c;" horiz-adv-x="537" 
d="M313 538q0 23 -10.5 40.5t-36.5 17.5q-23 0 -34.5 -16t-11.5 -38q0 -36 22 -56t55 -34.5t72 -29t72 -38.5t55 -63t22 -103q0 -62 -15 -106t-46.5 -72t-81.5 -41t-119 -13q-57 0 -101.5 10.5t-74.5 35t-45.5 64.5t-15.5 99v19h194v-33q0 -26 12 -44.5t38 -18.5
q28 0 38.5 20t10.5 43q0 17 -3 28t-9 18.5t-14 13t-17 11.5q-20 11 -46 22t-53 25q-41 20 -68.5 38.5t-44.5 41t-24 51t-7 68.5q0 75 20.5 118t55.5 68q26 18 64.5 31t98.5 13q76 0 122 -17.5t71.5 -47.5t34 -69.5t8.5 -84.5h-188v29zM166 904h206l59 -144h-132l-29 81
l-35 -81h-126z" />
    <glyph glyph-name="scircumflex" unicode="&#x15d;" horiz-adv-x="463" 
d="M180 174q2 -17 3.5 -30t6.5 -23t14.5 -15.5t26.5 -5.5q13 0 20.5 5t12 12t6 14t1.5 11q0 10 -2 17t-9.5 13.5t-22.5 13t-42 15.5q-47 16 -81 31t-56.5 34t-33 44.5t-10.5 62.5q0 41 12 74.5t37.5 57.5t66 37t96.5 13q81 0 125 -19t64 -46t23.5 -55.5t3.5 -47.5h-164
q0 11 -1.5 21.5t-6.5 17.5q-10 15 -39 15q-15 0 -28 -7t-13 -30q0 -10 5.5 -17.5t21.5 -16t44 -18.5t72 -25q20 -7 41.5 -17t39 -27t28.5 -45t11 -71q0 -50 -18 -84.5t-48 -56t-70.5 -31t-85.5 -9.5q-53 0 -93.5 8t-68.5 29t-43 57.5t-16 93.5h170zM131 738h206l59 -144
h-132l-29 81l-35 -81h-126z" />
    <glyph glyph-name="Scedilla" unicode="&#x15e;" horiz-adv-x="537" 
d="M163 -158q18 -10 38 -13t40 -3q19 0 30 8.5t11 22.5t-12.5 22.5t-28.5 8.5q-8 0 -13.5 -1.5t-13.5 -4.5l-29 21l43 84q-20 1 -38.5 3.5t-35.5 6.5q-66 15 -100.5 62.5t-34.5 135.5v19h194v-33q0 -26 12 -44.5t38 -18.5q28 0 38.5 20t10.5 43q0 17 -3 28t-9 18.5t-14 13
t-17 11.5q-20 11 -46 22t-53 25q-41 20 -68.5 38.5t-44.5 41t-24 51t-7 68.5q0 75 20.5 118t55.5 68q26 18 64.5 31t98.5 13q76 0 122 -17.5t71.5 -47.5t34 -69.5t8.5 -84.5h-188v29q0 23 -10.5 40.5t-36.5 17.5q-23 0 -34.5 -16t-11.5 -38q0 -36 22 -56t55 -34.5t72 -29
t72 -38.5t55 -63t22 -103q0 -94 -34 -146.5t-109 -72.5q-36 -9 -82 -12l-27 -51q8 3 17.5 4t17.5 1q36 0 59.5 -24t23.5 -58q0 -25 -11.5 -43.5t-30 -31t-42 -18.5t-46.5 -6q-15 0 -31 2t-31.5 5.5t-29 7.5t-22.5 8z" />
    <glyph glyph-name="scedilla" unicode="&#x15f;" horiz-adv-x="463" 
d="M126 -158q18 -10 38 -13t40 -3q19 0 30 8.5t11 22.5t-12.5 22.5t-28.5 8.5q-8 0 -13.5 -1.5t-13.5 -4.5l-29 21l43 84q-14 1 -27.5 3t-26.5 4q-60 12 -92.5 53.5t-34.5 126.5h170q2 -17 3.5 -30t6.5 -23t14.5 -15.5t26.5 -5.5q13 0 20.5 5t12 12t6 14t1.5 11q0 10 -2 17
t-9.5 13.5t-22.5 13t-42 15.5q-47 16 -81 31t-56.5 34t-33 44.5t-10.5 62.5q0 41 12 74.5t37.5 57.5t66 37t96.5 13q81 0 125 -19t64 -46t23.5 -55.5t3.5 -47.5h-164q0 11 -1.5 21.5t-6.5 17.5q-10 15 -39 15q-15 0 -28 -7t-13 -30q0 -10 5.5 -17.5t21.5 -16t44 -18.5
t72 -25q20 -7 41.5 -17t39 -27t28.5 -45t11 -71q0 -75 -38.5 -116t-98.5 -55q-29 -8 -60 -9l-27 -51q8 3 17.5 4t17.5 1q36 0 59.5 -24t23.5 -58q0 -25 -11.5 -43.5t-30 -31t-42 -18.5t-46.5 -6q-15 0 -31 2t-31.5 5.5t-29 7.5t-22.5 8z" />
    <glyph glyph-name="Scaron" unicode="&#x160;" horiz-adv-x="537" 
d="M313 538q0 23 -10.5 40.5t-36.5 17.5q-23 0 -34.5 -16t-11.5 -38q0 -36 22 -56t55 -34.5t72 -29t72 -38.5t55 -63t22 -103q0 -62 -15 -106t-46.5 -72t-81.5 -41t-119 -13q-57 0 -101.5 10.5t-74.5 35t-45.5 64.5t-15.5 99v19h194v-33q0 -26 12 -44.5t38 -18.5
q28 0 38.5 20t10.5 43q0 17 -3 28t-9 18.5t-14 13t-17 11.5q-20 11 -46 22t-53 25q-41 20 -68.5 38.5t-44.5 41t-24 51t-7 68.5q0 75 20.5 118t55.5 68q26 18 64.5 31t98.5 13q76 0 122 -17.5t71.5 -47.5t34 -69.5t8.5 -84.5h-188v29zM109 904h126l35 -81l29 81h132
l-59 -144h-206z" />
    <glyph glyph-name="scaron" unicode="&#x161;" horiz-adv-x="463" 
d="M180 174q2 -17 3.5 -30t6.5 -23t14.5 -15.5t26.5 -5.5q13 0 20.5 5t12 12t6 14t1.5 11q0 10 -2 17t-9.5 13.5t-22.5 13t-42 15.5q-47 16 -81 31t-56.5 34t-33 44.5t-10.5 62.5q0 41 12 74.5t37.5 57.5t66 37t96.5 13q81 0 125 -19t64 -46t23.5 -55.5t3.5 -47.5h-164
q0 11 -1.5 21.5t-6.5 17.5q-10 15 -39 15q-15 0 -28 -7t-13 -30q0 -10 5.5 -17.5t21.5 -16t44 -18.5t72 -25q20 -7 41.5 -17t39 -27t28.5 -45t11 -71q0 -50 -18 -84.5t-48 -56t-70.5 -31t-85.5 -9.5q-53 0 -93.5 8t-68.5 29t-43 57.5t-16 93.5h170zM72 738h126l35 -81l29 81
h132l-59 -144h-206z" />
    <glyph glyph-name="Tcommaaccent" unicode="&#x162;" horiz-adv-x="464" 
d="M-4 714h472v-168h-136v-546h-200v546h-136v168zM153 -50h154v-93q-2 -25 -10 -43t-23.5 -29.5t-40 -17.5t-60.5 -7v46q27 3 37 9.5t15 21.5h-72v113z" />
    <glyph glyph-name="tcommaaccent" unicode="&#x163;" horiz-adv-x="315" 
d="M56 700h194v-159h68v-126h-68v-241q0 -26 6.5 -38t30.5 -12q20 0 31 3v-129q-6 -1 -17.5 -2t-25.5 -2t-28 -1.5t-25 -0.5q-42 0 -73 2.5t-51.5 14.5t-31 37.5t-10.5 71.5v297h-59v126h59v159zM110 -50h154v-93q-2 -25 -10 -43t-23.5 -29.5t-40 -17.5t-60.5 -7v46
q27 3 37 9.5t15 21.5h-72v113z" />
    <glyph glyph-name="Tcaron" unicode="&#x164;" horiz-adv-x="464" 
d="M-4 714h472v-168h-136v-546h-200v546h-136v168zM74 904h126l35 -81l29 81h132l-59 -144h-206z" />
    <glyph glyph-name="tcaron" unicode="&#x165;" horiz-adv-x="451" 
d="M334 714h151l-55 -144h-119zM56 700h194v-159h68v-126h-68v-241q0 -26 6.5 -38t30.5 -12q20 0 31 3v-129q-6 -1 -17.5 -2t-25.5 -2t-28 -1.5t-25 -0.5q-42 0 -73 2.5t-51.5 14.5t-31 37.5t-10.5 71.5v297h-59v126h59v159z" />
    <glyph glyph-name="Tbar" unicode="&#x166;" horiz-adv-x="464" 
d="M39 416h93v130h-136v168h472v-168h-136v-130h93v-82h-93v-334h-200v334h-93v82z" />
    <glyph glyph-name="tbar" unicode="&#x167;" horiz-adv-x="315" 
d="M-12 343h68v72h-59v126h59v159h194v-159h68v-126h-68v-72h77v-82h-77v-87q0 -26 6.5 -38t30.5 -12q20 0 31 3v-129q-6 -1 -17.5 -2t-25.5 -2t-28 -1.5t-25 -0.5q-42 0 -73 2.5t-51.5 14.5t-31 37.5t-10.5 71.5v143h-68v82z" />
    <glyph glyph-name="Utilde" unicode="&#x168;" horiz-adv-x="556" 
d="M324 714h200v-472q0 -128 -56.5 -192t-189.5 -64q-73 0 -120.5 15t-75.5 46.5t-39 80t-11 114.5v472h200v-510q0 -46 8.5 -66t37.5 -20t37.5 20t8.5 66v510zM112 760q2 27 9 52.5t19.5 46t30.5 33t42 12.5q17 0 32.5 -5.5t31.5 -12.5q15 -7 29 -12.5t25 -5.5
q16 0 20.5 12.5t6.5 23.5h90q0 -27 -7 -53t-21.5 -46t-36 -32.5t-49.5 -12.5q-20 0 -36 5.5t-29 12.5t-24 12.5t-20 5.5q-11 0 -16.5 -11t-6.5 -25h-90z" />
    <glyph glyph-name="utilde" unicode="&#x169;" horiz-adv-x="519" 
d="M304 62h-2q-22 -40 -58 -58t-85 -18q-26 0 -50 7.5t-42 24t-29 42.5t-11 63v418h194v-358q0 -31 9.5 -42t28.5 -11q20 0 29.5 15t9.5 38v358h194v-541h-188v62zM93 594q2 27 9 52.5t19.5 46t30.5 33t42 12.5q17 0 32.5 -5.5t31.5 -12.5q15 -7 29 -12.5t25 -5.5
q16 0 20.5 12.5t6.5 23.5h90q0 -27 -7 -53t-21.5 -46t-36 -32.5t-49.5 -12.5q-20 0 -36 5.5t-29 12.5t-24 12.5t-20 5.5q-11 0 -16.5 -11t-6.5 -25h-90z" />
    <glyph glyph-name="Umacron" unicode="&#x16a;" horiz-adv-x="556" 
d="M324 714h200v-472q0 -128 -56.5 -192t-189.5 -64q-73 0 -120.5 15t-75.5 46.5t-39 80t-11 114.5v472h200v-510q0 -46 8.5 -66t37.5 -20t37.5 20t8.5 66v510zM117 883h326v-102h-326v102z" />
    <glyph glyph-name="umacron" unicode="&#x16b;" horiz-adv-x="519" 
d="M304 62h-2q-22 -40 -58 -58t-85 -18q-26 0 -50 7.5t-42 24t-29 42.5t-11 63v418h194v-358q0 -31 9.5 -42t28.5 -11q20 0 29.5 15t9.5 38v358h194v-541h-188v62zM97 717h326v-102h-326v102z" />
    <glyph glyph-name="Ubreve" unicode="&#x16c;" horiz-adv-x="556" 
d="M324 714h200v-472q0 -128 -56.5 -192t-189.5 -64q-73 0 -120.5 15t-75.5 46.5t-39 80t-11 114.5v472h200v-510q0 -46 8.5 -66t37.5 -20t37.5 20t8.5 66v510zM210 908q0 -27 20 -44.5t48 -17.5q32 0 52 16.5t20 45.5h84q0 -37 -12 -65t-33.5 -47.5t-51.5 -29.5t-65 -10
q-63 0 -104.5 39.5t-41.5 112.5h84z" />
    <glyph glyph-name="ubreve" unicode="&#x16d;" horiz-adv-x="519" 
d="M304 62h-2q-22 -40 -58 -58t-85 -18q-26 0 -50 7.5t-42 24t-29 42.5t-11 63v418h194v-358q0 -31 9.5 -42t28.5 -11q20 0 29.5 15t9.5 38v358h194v-541h-188v62zM190 742q0 -27 20 -44.5t48 -17.5q32 0 52 16.5t20 45.5h84q0 -37 -12 -65t-33.5 -47.5t-51.5 -29.5t-65 -10
q-63 0 -104.5 39.5t-41.5 112.5h84z" />
    <glyph glyph-name="Uring" unicode="&#x16e;" horiz-adv-x="556" 
d="M324 714h200v-472q0 -128 -56.5 -192t-189.5 -64q-73 0 -120.5 15t-75.5 46.5t-39 80t-11 114.5v472h200v-510q0 -46 8.5 -66t37.5 -20t37.5 20t8.5 66v510zM221 862q0 -24 17 -41t41 -17t41 17t17 41q0 25 -17 42t-41 17t-41 -17t-17 -42zM149 863q0 28 10 51.5t28 40
t41.5 25.5t50.5 9t50.5 -9t41.5 -25.5t28 -40t10 -51.5t-10 -51t-28 -39t-41.5 -25t-50.5 -9t-50.5 9t-41.5 25t-28 39t-10 51z" />
    <glyph glyph-name="uring" unicode="&#x16f;" horiz-adv-x="519" 
d="M304 62h-2q-22 -40 -58 -58t-85 -18q-26 0 -50 7.5t-42 24t-29 42.5t-11 63v418h194v-358q0 -31 9.5 -42t28.5 -11q20 0 29.5 15t9.5 38v358h194v-541h-188v62zM202 706q0 -24 17 -41t41 -17t41 17t17 41q0 25 -17 42t-41 17t-41 -17t-17 -42zM130 707q0 28 10 51.5
t28 40t41.5 25.5t50.5 9t50.5 -9t41.5 -25.5t28 -40t10 -51.5t-10 -51t-28 -39t-41.5 -25t-50.5 -9t-50.5 9t-41.5 25t-28 39t-10 51z" />
    <glyph glyph-name="Uhungarumlaut" unicode="&#x170;" horiz-adv-x="556" 
d="M324 714h200v-472q0 -128 -56.5 -192t-189.5 -64q-73 0 -120.5 15t-75.5 46.5t-39 80t-11 114.5v472h200v-510q0 -46 8.5 -66t37.5 -20t37.5 20t8.5 66v510zM360 904h176l-93 -144h-119zM148 904h176l-93 -144h-119z" />
    <glyph glyph-name="uhungarumlaut" unicode="&#x171;" horiz-adv-x="519" 
d="M304 62h-2q-22 -40 -58 -58t-85 -18q-26 0 -50 7.5t-42 24t-29 42.5t-11 63v418h194v-358q0 -31 9.5 -42t28.5 -11q20 0 29.5 15t9.5 38v358h194v-541h-188v62zM345 738h176l-93 -144h-119zM133 738h176l-93 -144h-119z" />
    <glyph glyph-name="Uogonek" unicode="&#x172;" horiz-adv-x="556" 
d="M398 -203q-35 -20 -66 -28.5t-70 -8.5q-31 0 -52 6.5t-35 18.5q-13 12 -20 26t-7 44q0 29 26 67q23 31 72 65q-26 2 -48 5.5t-41 8.5q-72 23 -98.5 82.5t-26.5 158.5v472h200v-510q0 -46 8.5 -66t37.5 -20t37.5 20t8.5 66v510h200v-472q0 -128 -57 -192q-42 -48 -126 -60
q-54 -47 -69 -72q-16 -28 -16 -52q0 -38 41 -38q36 0 77 22z" />
    <glyph glyph-name="uogonek" unicode="&#x173;" horiz-adv-x="519" 
d="M304 62h-2q-22 -40 -58 -58t-85 -18q-26 0 -50 7.5t-42 24t-29 42.5t-11 63v418h194v-358q0 -31 9.5 -42t28.5 -11q20 0 29.5 15t9.5 38v358h194v-541h-109q-20 -27 -32.5 -46.5t-20 -35t-10.5 -28t-3 -24.5q0 -38 37 -38q32 0 69 22l22 -53q-32 -20 -60 -28.5t-63 -8.5
q-28 0 -46.5 6.5t-31.5 18.5q-12 12 -18 26t-6 44t21 66.5t64 78.5h-1v62z" />
    <glyph glyph-name="Wcircumflex" unicode="&#x174;" horiz-adv-x="778" 
d="M594 714h188l-118 -714h-214l-60 480h-2l-57 -480h-218l-117 714h194l47 -506h2l63 506h176l71 -506h2zM287 904h206l59 -144h-132l-29 81l-35 -81h-126z" />
    <glyph glyph-name="wcircumflex" unicode="&#x175;" horiz-adv-x="759" 
d="M-1 541h194l38 -373h2l52 373h200l50 -373h2l41 373h182l-108 -541h-224l-45 349h-2l-48 -349h-223zM282 738h206l59 -144h-132l-29 81l-35 -81h-126z" />
    <glyph glyph-name="Ycircumflex" unicode="&#x176;" horiz-adv-x="538" 
d="M332 714h217l-180 -433v-281h-200v281l-180 433h222l57 -249h2zM165 904h206l59 -144h-132l-29 81l-35 -81h-126z" />
    <glyph glyph-name="ycircumflex" unicode="&#x177;" horiz-adv-x="481" 
d="M-4 541h200l49 -328h2l44 328h194l-139 -536q-13 -48 -26 -82.5t-34 -56.5t-55 -32t-89 -10q-32 0 -53 2.5t-39 6.5v126q25 -3 51 -3q24 0 35 15q10 13 10 29zM142 738h206l59 -144h-132l-29 81l-35 -81h-126z" />
    <glyph glyph-name="Ydieresis" unicode="&#x178;" horiz-adv-x="538" 
d="M332 714h217l-180 -433v-281h-200v281l-180 433h222l57 -249h2zM289 904h144v-144h-144v144zM107 904h144v-144h-144v144z" />
    <glyph glyph-name="Zacute" unicode="&#x179;" horiz-adv-x="481" 
d="M230 552h-196v162h428v-139l-217 -413h216v-162h-442v137zM219 904h176l-93 -144h-119z" />
    <glyph glyph-name="zacute" unicode="&#x17a;" horiz-adv-x="463" 
d="M200 391h-173v150h411v-144l-191 -247h198v-150h-427v148zM203 738h176l-93 -144h-119z" />
    <glyph glyph-name="Zdotaccent" unicode="&#x17b;" horiz-adv-x="481" 
d="M230 552h-196v162h428v-139l-217 -413h216v-162h-442v137zM179 904h144v-144h-144v144z" />
    <glyph glyph-name="zdotaccent" unicode="&#x17c;" horiz-adv-x="463" 
d="M200 391h-173v150h411v-144l-191 -247h198v-150h-427v148zM166 738h144v-144h-144v144z" />
    <glyph glyph-name="Zcaron" unicode="&#x17d;" horiz-adv-x="481" 
d="M230 552h-196v162h428v-139l-217 -413h216v-162h-442v137zM92 904h126l35 -81l29 81h132l-59 -144h-206z" />
    <glyph glyph-name="zcaron" unicode="&#x17e;" horiz-adv-x="463" 
d="M200 391h-173v150h411v-144l-191 -247h198v-150h-427v148zM77 738h126l35 -81l29 81h132l-59 -144h-206z" />
    <glyph glyph-name="florin" unicode="&#x192;" horiz-adv-x="520" 
d="M-7 -47q7 -1 13.5 -2t13.5 -1q25 0 39.5 5.5t23.5 18.5t14 35t11 56l46 237h-104l21 114h105l19 91q12 55 27.5 94.5t41 64.5t64 36.5t97.5 11.5q23 0 38 -0.5t24.5 -1.5t14.5 -2l10 -2l-25 -123q-15 3 -32 3q-19 0 -31.5 -4.5t-21.5 -16.5t-16 -34.5t-15 -58.5l-13 -58
h111l-21 -114h-112l-42 -233q-5 -30 -11.5 -60t-17 -58t-27 -52t-41.5 -42q-29 -21 -64 -27t-70 -6q-19 0 -43 2t-53 8z" />
    <glyph glyph-name="Scommaaccent" unicode="&#x218;" horiz-adv-x="537" 
d="M313 538q0 23 -10.5 40.5t-36.5 17.5q-23 0 -34.5 -16t-11.5 -38q0 -36 22 -56t55 -34.5t72 -29t72 -38.5t55 -63t22 -103q0 -62 -15 -106t-46.5 -72t-81.5 -41t-119 -13q-57 0 -101.5 10.5t-74.5 35t-45.5 64.5t-15.5 99v19h194v-33q0 -26 12 -44.5t38 -18.5
q28 0 38.5 20t10.5 43q0 17 -3 28t-9 18.5t-14 13t-17 11.5q-20 11 -46 22t-53 25q-41 20 -68.5 38.5t-44.5 41t-24 51t-7 68.5q0 75 20.5 118t55.5 68q26 18 64.5 31t98.5 13q76 0 122 -17.5t71.5 -47.5t34 -69.5t8.5 -84.5h-188v29zM187 -50h154v-93q-2 -25 -10 -43
t-23.5 -29.5t-40 -17.5t-60.5 -7v46q27 3 37 9.5t15 21.5h-72v113z" />
    <glyph glyph-name="scommaaccent" unicode="&#x219;" horiz-adv-x="463" 
d="M180 174q2 -17 3.5 -30t6.5 -23t14.5 -15.5t26.5 -5.5q13 0 20.5 5t12 12t6 14t1.5 11q0 10 -2 17t-9.5 13.5t-22.5 13t-42 15.5q-47 16 -81 31t-56.5 34t-33 44.5t-10.5 62.5q0 41 12 74.5t37.5 57.5t66 37t96.5 13q81 0 125 -19t64 -46t23.5 -55.5t3.5 -47.5h-164
q0 11 -1.5 21.5t-6.5 17.5q-10 15 -39 15q-15 0 -28 -7t-13 -30q0 -10 5.5 -17.5t21.5 -16t44 -18.5t72 -25q20 -7 41.5 -17t39 -27t28.5 -45t11 -71q0 -50 -18 -84.5t-48 -56t-70.5 -31t-85.5 -9.5q-53 0 -93.5 8t-68.5 29t-43 57.5t-16 93.5h170zM155 -50h154v-93
q-2 -25 -10 -43t-23.5 -29.5t-40 -17.5t-60.5 -7v46q27 3 37 9.5t15 21.5h-72v113z" />
    <glyph glyph-name="uni021A" unicode="&#x21a;" horiz-adv-x="464" 
d="M-4 714h472v-168h-136v-546h-200v546h-136v168zM153 -50h154v-93q-2 -25 -10 -43t-23.5 -29.5t-40 -17.5t-60.5 -7v46q27 3 37 9.5t15 21.5h-72v113z" />
    <glyph glyph-name="uni021B" unicode="&#x21b;" horiz-adv-x="315" 
d="M56 700h194v-159h68v-126h-68v-241q0 -26 6.5 -38t30.5 -12q20 0 31 3v-129q-6 -1 -17.5 -2t-25.5 -2t-28 -1.5t-25 -0.5q-42 0 -73 2.5t-51.5 14.5t-31 37.5t-10.5 71.5v297h-59v126h59v159zM110 -50h154v-93q-2 -25 -10 -43t-23.5 -29.5t-40 -17.5t-60.5 -7v46
q27 3 37 9.5t15 21.5h-72v113z" />
    <glyph glyph-name="circumflex" unicode="&#x2c6;" horiz-adv-x="260" 
d="M26 738h206l59 -144h-132l-29 81l-35 -81h-126z" />
    <glyph glyph-name="caron" unicode="&#x2c7;" horiz-adv-x="260" 
d="M-31 738h126l35 -81l29 81h132l-59 -144h-206z" />
    <glyph glyph-name="uni02C9" unicode="&#x2c9;" horiz-adv-x="260" 
d="M-33 717h326v-102h-326v102z" />
    <glyph glyph-name="breve" unicode="&#x2d8;" horiz-adv-x="260" 
d="M60 742q0 -27 20 -44.5t48 -17.5q32 0 52 16.5t20 45.5h84q0 -37 -12 -65t-33.5 -47.5t-51.5 -29.5t-65 -10q-63 0 -104.5 39.5t-41.5 112.5h84z" />
    <glyph glyph-name="dotaccent" unicode="&#x2d9;" horiz-adv-x="260" 
d="M58 738h144v-144h-144v144z" />
    <glyph glyph-name="ring" unicode="&#x2da;" horiz-adv-x="260" 
d="M72 706q0 -24 17 -41t41 -17t41 17t17 41q0 25 -17 42t-41 17t-41 -17t-17 -42zM0 707q0 28 10 51.5t28 40t41.5 25.5t50.5 9t50.5 -9t41.5 -25.5t28 -40t10 -51.5t-10 -51t-28 -39t-41.5 -25t-50.5 -9t-50.5 9t-41.5 25t-28 39t-10 51z" />
    <glyph glyph-name="ogonek" unicode="&#x2db;" horiz-adv-x="260" 
d="M254 -203q-35 -20 -66 -28.5t-70 -8.5q-31 0 -52 6.5t-35 18.5q-13 12 -20 26t-7 44t26 66.5t92 78.5h87q-65 -54 -81 -82t-16 -52q0 -38 41 -38q36 0 77 22z" />
    <glyph glyph-name="tilde" unicode="&#x2dc;" horiz-adv-x="260" 
d="M-38 594q2 27 9 52.5t19.5 46t30.5 33t42 12.5q17 0 32.5 -5.5t31.5 -12.5q15 -7 29 -12.5t25 -5.5q16 0 20.5 12.5t6.5 23.5h90q0 -27 -7 -53t-21.5 -46t-36 -32.5t-49.5 -12.5q-20 0 -36 5.5t-29 12.5t-24 12.5t-20 5.5q-11 0 -16.5 -11t-6.5 -25h-90z" />
    <glyph glyph-name="hungarumlaut" unicode="&#x2dd;" horiz-adv-x="260" 
d="M166 738h176l-93 -144h-119zM-46 738h176l-93 -144h-119z" />
    <glyph glyph-name="uni0394" unicode="&#x394;" horiz-adv-x="722" 
d="M352 536l-124 -386h258zM12 0l249 712h177l272 -712h-698z" />
    <glyph glyph-name="uni03A9" unicode="&#x3a9;" horiz-adv-x="778" 
d="M726 416q0 -41 -11 -82t-32.5 -76t-54 -60t-75.5 -34v-19h172v-145h-302v222q33 6 57 22.5t39.5 40.5t22.5 53t7 61q0 36 -10 68t-30 55.5t-49.5 37.5t-67.5 14q-39 0 -69 -14.5t-51 -39.5t-32 -58t-11 -69q0 -63 30 -111t94 -60v-222h-302v145h173v19q-44 12 -76 36.5
t-54 57.5t-32.5 73t-10.5 84q0 75 27.5 132t74 95.5t108.5 58.5t132 20q68 0 128.5 -20.5t106 -59.5t72 -96t26.5 -129z" />
    <glyph glyph-name="uni03BC" unicode="&#x3bc;" horiz-adv-x="519" 
d="M492 0h-188v62h-2q-14 -42 -31 -59t-36 -17q-4 0 -14 2v-164h-194v717h194v-358q0 -31 9.5 -42t28.5 -11q20 0 29.5 15t9.5 38v358h194v-541z" />
    <glyph glyph-name="pi" unicode="&#x3c0;" horiz-adv-x="629" 
d="M604 21q-29 -15 -53 -22.5t-56 -7.5q-37 0 -61.5 10.5t-39 30t-20.5 46.5t-6 60v217h-143v-355h-155v355h-70v141h604v-141h-81v-155q0 -12 -0.5 -25.5t2.5 -25t11 -19t25 -7.5q11 0 21.5 3t21.5 8v-113z" />
    <glyph glyph-name="endash" unicode="&#x2013;" 
d="M500 212h-500v156h500v-156z" />
    <glyph glyph-name="emdash" unicode="&#x2014;" horiz-adv-x="1000" 
d="M0 368h1000v-156h-1000v156z" />
    <glyph glyph-name="quoteleft" unicode="&#x2018;" horiz-adv-x="260" 
d="M42 482q0 52 5.5 94t24 72t53 47t93.5 19v-90q-18 -2 -30 -6t-19.5 -14t-11 -27t-4.5 -45h65v-204h-176v154z" />
    <glyph glyph-name="quoteright" unicode="&#x2019;" horiz-adv-x="260" 
d="M42 714h176v-154q0 -52 -5.5 -94t-24 -72t-53.5 -47t-93 -19v90q18 1 30 5.5t19.5 14.5t11 27.5t4.5 44.5h-65v204z" />
    <glyph glyph-name="quotesinglbase" unicode="&#x201a;" horiz-adv-x="260" 
d="M42 210h176v-154q0 -52 -5.5 -94t-24 -72t-53.5 -47t-93 -19v90q18 1 30 5.5t19.5 14.5t11 27.5t4.5 44.5h-65v204z" />
    <glyph glyph-name="quotedblleft" unicode="&#x201c;" 
d="M42 482q0 52 5.5 94t24 72t53 47t93.5 19v-90q-18 -2 -30 -6t-19.5 -14t-11 -27t-4.5 -45h65v-204h-176v154zM282 482q0 52 5.5 94t24 72t53 47t93.5 19v-90q-18 -2 -30 -6t-19.5 -14t-11 -27t-4.5 -45h65v-204h-176v154z" />
    <glyph glyph-name="quotedblright" unicode="&#x201d;" 
d="M282 714h176v-154q0 -52 -5.5 -94t-24 -72t-53.5 -47t-93 -19v90q18 1 30 5.5t19.5 14.5t11 27.5t4.5 44.5h-65v204zM42 714h176v-154q0 -52 -5.5 -94t-24 -72t-53.5 -47t-93 -19v90q18 1 30 5.5t19.5 14.5t11 27.5t4.5 44.5h-65v204z" />
    <glyph glyph-name="quotedblbase" unicode="&#x201e;" 
d="M282 210h176v-154q0 -52 -5.5 -94t-24 -72t-53.5 -47t-93 -19v90q18 1 30 5.5t19.5 14.5t11 27.5t4.5 44.5h-65v204zM42 210h176v-154q0 -52 -5.5 -94t-24 -72t-53.5 -47t-93 -19v90q18 1 30 5.5t19.5 14.5t11 27.5t4.5 44.5h-65v204z" />
    <glyph glyph-name="dagger" unicode="&#x2020;" horiz-adv-x="520" 
d="M166 714h188v-190h166v-150h-166v-514h-188v514h-166v150h166v190z" />
    <glyph glyph-name="daggerdbl" unicode="&#x2021;" horiz-adv-x="520" 
d="M166 714h188v-190h166v-150h-166v-180h166v-150h-166v-184h-188v184h-166v150h166v180h-166v150h166v190z" />
    <glyph glyph-name="bullet" unicode="&#x2022;" 
d="M72 357q0 37 14 69.5t38 56.5t56.5 38t69.5 14t69.5 -14t56.5 -38t38 -56.5t14 -69.5t-14 -69.5t-38 -56.5t-56.5 -38t-69.5 -14t-69.5 14t-56.5 38t-38 56.5t-14 69.5z" />
    <glyph glyph-name="ellipsis" unicode="&#x2026;" horiz-adv-x="1000" 
d="M745 212h176v-212h-176v212zM412 212h176v-212h-176v212zM79 212h176v-212h-176v212z" />
    <glyph glyph-name="perthousand" unicode="&#x2030;" horiz-adv-x="1130" 
d="M493 725h114l-322 -756h-114zM174 324q-50 0 -81 12.5t-49 37t-24.5 60t-6.5 82.5q0 46 6.5 82t24.5 60.5t49 37t81 12.5q49 0 80.5 -12.5t49.5 -37t24.5 -60.5t6.5 -82q0 -47 -6.5 -82.5t-24.5 -60t-49.5 -37t-80.5 -12.5zM174 408q22 0 25.5 25.5t3.5 82.5t-3.5 82.5
t-25.5 25.5t-25.5 -25.5t-3.5 -82.5t3.5 -82.5t25.5 -25.5zM604 -14q-50 0 -81 12.5t-49 37t-24.5 60t-6.5 82.5q0 46 6.5 82t24.5 60.5t49 37t81 12.5q49 0 80.5 -12.5t49.5 -37t24.5 -60.5t6.5 -82q0 -47 -6.5 -82.5t-24.5 -60t-49.5 -37t-80.5 -12.5zM604 70
q22 0 25.5 25.5t3.5 82.5t-3.5 82.5t-25.5 25.5t-25.5 -25.5t-3.5 -82.5t3.5 -82.5t25.5 -25.5zM956 70q22 0 25.5 25.5t3.5 82.5t-3.5 82.5t-25.5 25.5t-25.5 -25.5t-3.5 -82.5t3.5 -82.5t25.5 -25.5zM956 -14q-50 0 -81 12.5t-49 37t-24.5 60t-6.5 82.5q0 46 6.5 82
t24.5 60.5t49 37t81 12.5q49 0 80.5 -12.5t49.5 -37t24.5 -60.5t6.5 -82q0 -47 -6.5 -82.5t-24.5 -60t-49.5 -37t-80.5 -12.5z" />
    <glyph glyph-name="guilsinglleft" unicode="&#x2039;" horiz-adv-x="242" 
d="M36 407l170 101v-168l-92 -50l92 -50v-168l-170 96v239z" />
    <glyph glyph-name="guilsinglright" unicode="&#x203a;" horiz-adv-x="242" 
d="M206 168l-170 -96v168l92 50l-92 50v168l170 -101v-239z" />
    <glyph glyph-name="fraction" unicode="&#x2044;" horiz-adv-x="167" 
d="M220 725h114l-387 -756h-114z" />
    <glyph glyph-name="Euro" unicode="&#x20ac;" horiz-adv-x="520" 
d="M476 539q-9 9 -18.5 15.5t-23.5 12.5q-20 8 -38.5 11.5t-40.5 3.5q-13 0 -30 -3t-30 -17q-11 -11 -17.5 -32.5t-6.5 -39.5h190l-36 -108h-155v-72h136l-36 -108h-97q-2 -38 22 -63q9 -10 27.5 -18.5t48.5 -8.5q32 0 68 17q11 5 28.5 17.5t34.5 33.5v-156q-28 -15 -69 -26
q-25 -6 -54 -9t-58 -3q-14 0 -35.5 1t-45.5 5.5t-48.5 14t-45.5 25.5q-31 24 -50 65.5t-22 104.5h-80l36 108h40v72h-76l36 108h44q2 51 17 96.5t55 76.5q20 16 43.5 25t48 13.5t48.5 5.5t45 1q77 0 125 -13q20 -6 35.5 -13.5t28.5 -16.5z" />
    <glyph glyph-name="afii61289" unicode="&#x2113;" 
d="M465 56q-43 -35 -86.5 -52.5t-94.5 -17.5q-42 0 -74.5 12t-54.5 32t-33 47.5t-11 59.5v25l-54 -45h-2l-54 84l109 86v233q0 42 14 78.5t39.5 64t61 43t77.5 15.5q37 0 66.5 -11.5t50.5 -31.5t32 -49t11 -63q0 -77 -48 -149.5t-148 -153.5v-101q0 -35 18 -49t39 -14
q36 0 88 37h2l52 -80v0zM336 557q0 25 -9 43.5t-26 18.5q-15 0 -25 -19.5t-10 -49.5v-157q39 40 54.5 81t15.5 83z" />
    <glyph glyph-name="trademark" unicode="&#x2122;" horiz-adv-x="1000" 
d="M829 570h-2l-82 -268h-102l-82 268h-2v-268h-132v412h194l72 -238h2l72 238h194v-412h-132v268zM111 606h-112v108h368v-108h-112v-304h-144v304z" />
    <glyph glyph-name="Omega" unicode="&#x2126;" horiz-adv-x="778" 
d="M726 416q0 -41 -11 -82t-32.5 -76t-54 -60t-75.5 -34v-19h172v-145h-302v222q33 6 57 22.5t39.5 40.5t22.5 53t7 61q0 36 -10 68t-30 55.5t-49.5 37.5t-67.5 14q-39 0 -69 -14.5t-51 -39.5t-32 -58t-11 -69q0 -63 30 -111t94 -60v-222h-302v145h173v19q-44 12 -76 36.5
t-54 57.5t-32.5 73t-10.5 84q0 75 27.5 132t74 95.5t108.5 58.5t132 20q68 0 128.5 -20.5t106 -59.5t72 -96t26.5 -129z" />
    <glyph glyph-name="estimated" unicode="&#x212e;" horiz-adv-x="600" 
d="M157 259v-181q59 -59 145 -59q63 0 109 28.5t84 91.5l35 -21q-23 -36 -46.5 -61.5t-51 -42t-59.5 -24t-71 -7.5q-59 0 -106.5 21.5t-81.5 59t-52 87.5t-18 108t18 108.5t52 87.5t81.5 58.5t106.5 21.5q58 0 105.5 -20.5t81.5 -57t53 -87t19 -111.5h-404zM448 295v145
q-63 60 -147 60t-144 -60v-145h291z" />
    <glyph glyph-name="partialdiff" unicode="&#x2202;" horiz-adv-x="593" 
d="M391 294q-17 17 -43.5 30t-51.5 13q-26 0 -44.5 -10.5t-31.5 -27.5t-19 -39t-6 -44q0 -21 5.5 -41.5t17 -37t28.5 -27t41 -10.5q31 0 51 18t32 44t16.5 56.5t4.5 54.5v21zM548 358q0 -65 -11 -131t-40 -119.5t-80 -87.5t-130 -34q-53 0 -97.5 17t-76.5 47.5t-50 74.5
t-18 98q0 48 16.5 90t46.5 73t71 49t91 18q67 0 123 -41q0 28 -5 61.5t-18.5 62.5t-36.5 48t-60 19t-65.5 -16.5t-54.5 -41.5l-84 93q45 42 91.5 62.5t108.5 20.5q79 0 133 -31.5t86 -82.5t46 -116.5t14 -132.5z" />
    <glyph glyph-name="Delta" unicode="&#x2206;" horiz-adv-x="722" 
d="M352 536l-124 -386h258zM12 0l249 712h177l272 -712h-698z" />
    <glyph glyph-name="product" unicode="&#x220f;" horiz-adv-x="759" 
d="M555 -214v845h-350v-845h-157v1000h663v-1000h-156z" />
    <glyph glyph-name="summation" unicode="&#x2211;" horiz-adv-x="704" 
d="M30 -214v135l286 372l-275 356v137h621v-156h-413l251 -337l-266 -351h440v-156h-644z" />
    <glyph glyph-name="minus" unicode="&#x2212;" horiz-adv-x="600" 
d="M47 325h506v-144h-506v144z" />
    <glyph glyph-name="uni2215" unicode="&#x2215;" horiz-adv-x="167" 
d="M220 725h114l-387 -756h-114z" />
    <glyph glyph-name="uni2219" unicode="&#x2219;" horiz-adv-x="260" 
d="M36 278q0 19 7.5 36.5t20 30t29.5 20t37 7.5q19 0 36.5 -7.5t30 -20t20 -30t7.5 -36.5q0 -20 -7.5 -37t-20 -29.5t-30 -20t-36.5 -7.5q-20 0 -37 7.5t-29.5 20t-20 29.5t-7.5 37z" />
    <glyph glyph-name="radical" unicode="&#x221a;" horiz-adv-x="611" 
d="M392 -214h-142l-140 286l-58 -27l-58 122l198 91l104 -232l155 760h166z" />
    <glyph glyph-name="infinity" unicode="&#x221e;" horiz-adv-x="889" 
d="M365 271q-9 13 -22 27.5t-28 26.5t-32 20t-34 8q-34 0 -53 -24.5t-19 -56.5q0 -34 19 -56t54 -22q37 0 66 24t49 53zM712 273q0 34 -20.5 57t-55.5 23q-17 0 -33.5 -8t-31 -20t-27 -26.5t-21.5 -27.5q10 -14 22.5 -28t27 -25t31 -18t35.5 -7q36 0 54.5 23t18.5 57z
M844 276q0 -47 -13.5 -87t-39.5 -70t-63.5 -47t-86.5 -17q-33 0 -61 9t-52 25t-45 37.5t-39 46.5q-18 -25 -38 -46.5t-43 -37t-50 -24.5t-60 -9q-49 0 -87.5 16.5t-65.5 46t-41 70t-14 87.5q0 46 13.5 85.5t39.5 68t64 44.5t86 16q36 0 63.5 -9.5t50.5 -26.5t42.5 -40
t39.5 -50q19 27 38.5 50.5t43 40t51.5 26t64 9.5q48 0 86 -16t64 -44.5t39.5 -68t13.5 -85.5z" />
    <glyph glyph-name="integral" unicode="&#x222b;" horiz-adv-x="667" 
d="M573 684q0 -32 -20 -52.5t-52 -20.5q-36 0 -49 17t-16.5 37.5t-6 37.5t-17.5 17q-8 0 -12 -4.5t-5.5 -10.5t-2 -13t-0.5 -12q0 -51 4 -101t4 -101l1 -302q0 -38 0.5 -81.5t-3.5 -87t-15 -83.5t-33 -71t-58 -49.5t-90 -18.5q-22 0 -47 6t-46 18t-35 31.5t-14 46.5
q0 32 19.5 52.5t51.5 20.5q24 0 37 -8t20 -20t9 -26t4.5 -26t6 -20t13.5 -8q7 0 11.5 4.5t6 11t2 14t0.5 12.5q0 45 -4.5 86.5t-4.5 86.5v389q0 41 1.5 86t11 87t31.5 78t64 59q20 11 43.5 15.5t46.5 4.5q22 0 47.5 -5.5t46.5 -18t35 -32t14 -46.5z" />
    <glyph glyph-name="approxequal" unicode="&#x2248;" horiz-adv-x="593" 
d="M579 253q-2 -32 -11 -70t-27 -70.5t-46.5 -54.5t-68.5 -22q-31 0 -64 9.5t-66.5 20.5t-66 20.5t-61.5 9.5q-25 0 -37.5 -14.5t-15.5 -37.5h-101q0 31 10.5 68.5t30 69.5t48 54t65.5 22q33 0 65 -9t64 -20.5t64 -20.5t65 -9q27 0 37 15.5t14 38.5h102zM579 503
q-2 -33 -12 -71t-29.5 -70t-48.5 -53.5t-69 -21.5q-27 0 -59 9.5t-65.5 20.5t-67 20.5t-61.5 9.5q-23 0 -36.5 -16t-15.5 -38h-101q0 33 10 71t30 70t49.5 53.5t68.5 21.5q29 0 61.5 -9t66 -20.5t65.5 -20.5t61 -9q26 0 37.5 15t13.5 38h102z" />
    <glyph glyph-name="notequal" unicode="&#x2260;" horiz-adv-x="593" 
d="M284 72l-80 -163l-138 68l46 95h-89v157h167l42 87h-209v158h287l80 161l137 -68l-46 -93h88v-158h-165l-43 -87h208v-157h-285z" />
    <glyph glyph-name="lessequal" unicode="&#x2264;" horiz-adv-x="593" 
d="M23 -53v157h546v-157h-546zM23 292v156l546 148v-160l-326 -66l326 -81v-161z" />
    <glyph glyph-name="greaterequal" unicode="&#x2265;" horiz-adv-x="593" 
d="M23 -53v157h546v-157h-546zM23 128v161l327 81l-327 66v160l546 -148v-156z" />
    <glyph glyph-name="lozenge" unicode="&#x25ca;" horiz-adv-x="593" 
d="M296 587l-105 -231l105 -231l104 231zM366 -35h-142l-194 391l196 391h140l196 -391z" />
    <glyph glyph-name="dotlessj" unicode="&#xe0d6;" horiz-adv-x="258" 
d="M226 -4q0 -52 -7 -85t-25.5 -52.5t-51 -27t-84.5 -7.5q-12 0 -37.5 1t-54.5 3v131q6 -1 14 -2t16 -1q13 0 24.5 6t11.5 34v545h194v-545z" />
    <glyph glyph-name="grave.cap" unicode="&#xe300;" horiz-adv-x="260" 
d="M-6 904h176l36 -144h-119z" />
    <glyph glyph-name="acute.cap" unicode="&#xe301;" horiz-adv-x="260" 
d="M90 904h176l-93 -144h-119z" />
    <glyph glyph-name="circumflex.cap" unicode="&#xe302;" horiz-adv-x="260" 
d="M26 904h206l59 -144h-132l-29 81l-35 -81h-126z" />
    <glyph glyph-name="caron.cap" unicode="&#xe303;" horiz-adv-x="260" 
d="M-31 904h126l35 -81l29 81h132l-59 -144h-206z" />
    <glyph glyph-name="tilde.cap" unicode="&#xe304;" horiz-adv-x="260" 
d="M-38 768q2 27 9 52.5t19.5 46t30.5 33t42 12.5q17 0 32.5 -5.5t31.5 -12.5q15 -7 29 -12.5t25 -5.5q16 0 20.5 12.5t6.5 23.5h90q0 -27 -7 -53t-21.5 -46t-36 -32.5t-49.5 -12.5q-20 0 -36 5.5t-29 12.5t-24 12.5t-20 5.5q-11 0 -16.5 -11t-6.5 -25h-90z" />
    <glyph glyph-name="dieresis.cap" unicode="&#xe305;" horiz-adv-x="260" 
d="M149 904h144v-144h-144v144zM-33 904h144v-144h-144v144z" />
    <glyph glyph-name="macron.cap" unicode="&#xe306;" horiz-adv-x="260" 
d="M-33 883h326v-102h-326v102z" />
    <glyph glyph-name="breve.cap" unicode="&#xe307;" horiz-adv-x="260" 
d="M60 908q0 -27 20 -44.5t48 -17.5q32 0 52 16.5t20 45.5h84q0 -37 -12 -65t-33.5 -47.5t-51.5 -29.5t-65 -10q-63 0 -104.5 39.5t-41.5 112.5h84z" />
    <glyph glyph-name="ring.cap" unicode="&#xe308;" horiz-adv-x="260" 
d="M72 860q0 -24 17 -41t41 -17t41 17t17 41q0 25 -17 42t-41 17t-41 -17t-17 -42zM0 861q0 28 10 51.5t28 40t41.5 25.5t50.5 9t50.5 -9t41.5 -25.5t28 -40t10 -51.5t-10 -51t-28 -39t-41.5 -25t-50.5 -9t-50.5 9t-41.5 25t-28 39t-10 51z" />
    <glyph glyph-name="hungarumlaut.cap" unicode="&#xe309;" horiz-adv-x="260" 
d="M166 904h176l-93 -144h-119zM-46 904h176l-93 -144h-119z" />
    <glyph glyph-name="dotaccent.cap" unicode="&#xe30a;" horiz-adv-x="260" 
d="M58 904h144v-144h-144v144z" />
    <glyph glyph-name="caron.alt" unicode="&#xe30b;" horiz-adv-x="260" 
d="M93 714h151l-55 -144h-119z" />
    <glyph glyph-name="commaaccent" unicode="&#xe30c;" horiz-adv-x="260" 
d="M55 -50h154v-93q-2 -25 -10 -43t-23.5 -29.5t-40 -17.5t-60.5 -7v46q27 3 37 9.5t15 21.5h-72v113z" />
    <glyph glyph-name="commaaccent.alt" unicode="&#xe30d;" horiz-adv-x="260" 
d="M208 601h-154v93q2 25 10 43t23.5 29.5t40 17t60.5 7.5v-46q-27 -3 -37 -9.5t-15 -21.5h72v-113z" />
    <glyph glyph-name="uniF8FF" unicode="&#xf8ff;" horiz-adv-x="512" 
d="M222 117v67h56v-67h-56zM225 234l-2 17q0 55 13 81t46 59q32 31 41 47.5t9 35.5q0 36 -22.5 60.5t-53.5 24.5t-53.5 -22t-28.5 -73l-50 8q7 71 44 104t91 33q53 0 88.5 -36t35.5 -95q0 -32 -12.5 -58.5t-50.5 -61.5q-37 -33 -43 -52t-6 -72h-46zM462 50v617h-412v-617
h412zM512 718v-718h-512v718h512z" />
    </font>
</defs>
</svg>
